<svg xmlns="http://www.w3.org/2000/svg" xmlns:xlink="http://www.w3.org/1999/xlink" xml:space="preserve" version="1.1" style="shape-rendering:geometricPrecision;text-rendering:geometricPrecision;image-rendering:optimizeQuality;" viewBox="0 0 333 416.25" x="0px" y="0px" fill-rule="evenodd" clip-rule="evenodd"><defs><style type="text/css">
   
    .fil0 {fill:black}
   
  </style></defs><g><path class="fil0" d="M219 149c20,-24 8,-71 -25,-71 -15,0 -28,11 -33,26 -6,-9 -16,-15 -26,-15 -33,0 -43,47 -25,70 31,-19 74,-23 109,-10zm-12 -32c4,0 6,4 6,8 0,5 -2,9 -6,9 -3,0 -6,-4 -6,-9 0,-4 3,-8 6,-8zm-61 0c4,0 7,3 7,8 0,4 -3,8 -7,8 -3,0 -6,-4 -6,-8 0,-5 3,-8 6,-8zm30 35c6,3 9,7 9,13 0,6 -5,12 -12,13 -1,18 -1,36 1,54 13,0 26,5 34,-8 2,-4 8,0 5,3 -11,17 -24,10 -40,11 -15,2 -34,11 -46,-1 -2,-3 2,-7 5,-4 8,8 26,1 36,0 -2,-18 -2,-36 -1,-54 -10,0 -18,-6 -18,-14 0,-5 2,-8 6,-11 -33,5 -80,33 -67,73 10,34 56,46 88,44 31,-2 75,-20 81,-54 8,-44 -47,-65 -81,-65zm84 9c8,-6 10,-15 6,-22 -4,-6 -13,-8 -20,-5 -2,7 -6,13 -11,18 2,11 16,15 25,9zm6 31c18,53 -45,87 -90,90 -50,3 -94,-23 -100,-58 -33,11 -68,-14 -68,-50 0,-37 38,-62 71,-48 -9,-47 44,-75 85,-75 38,0 71,20 82,47 34,-23 79,2 79,43 0,32 -28,56 -59,51zm-183 -5c4,-7 10,-14 17,-20 -3,-6 -9,-10 -16,-10 -10,0 -17,7 -17,15 0,8 7,15 16,15z"/></g><text x="0" y="348" fill="#000000" font-size="5px" font-weight="bold" font-family="'Helvetica Neue', Helvetica, Arial-Unicode, Arial, Sans-serif">Created by Rfourtytwo</text><text x="0" y="353" fill="#000000" font-size="5px" font-weight="bold" font-family="'Helvetica Neue', Helvetica, Arial-Unicode, Arial, Sans-serif">from the Noun Project</text></svg>