<?xml version="1.0" encoding="utf-8"?>
<!-- Generator: Adobe Illustrator 23.0.6, SVG Export Plug-In . SVG Version: 6.00 Build 0)  -->
<svg version="1.1" id="Layer_1" xmlns="http://www.w3.org/2000/svg" xmlns:xlink="http://www.w3.org/1999/xlink" x="0px" y="0px"
	 viewBox="0 0 100 125" style="enable-background:new 0 0 100 125;" xml:space="preserve">
<title>animal</title>
<desc>Created with Sketch.</desc>
<g>
	<path d="M62.8,50.1c5.9,0.8,11.8-5.5,12.6-13.8c0.8-8.3-3.1-15.7-9-16.5c-5.9-0.8-11.8,5.5-12.6,13.8
		C52.9,41.9,56.9,49.3,62.8,50.1z"/>
	<path d="M23.5,52.1C20.7,45,14,41.5,8.9,43.4s-7.1,9.4-4.3,16.1c2.8,7.1,9.4,10.6,14.5,8.6C24.6,66.2,26.2,59.2,23.5,52.1z"/>
	<path d="M36,50.1c5.9-0.8,9.8-8.3,9-16.5c-0.8-8.3-6.7-14.5-12.6-13.8c-5.9,0.8-9.8,8.3-9,16.5S30.1,50.9,36,50.1z"/>
	<path d="M70.2,70.9c-2.8-2.8-8.3-17.7-20.4-17.7S31.7,67.8,29.4,70.9C27,74.1,16.8,81.6,16.8,91.4c0,8.6,9,14.1,12.6,13.8
		c6.7-1.2,15.7-4.7,20.4-3.9c4.7-0.4,13.8,3.1,20.4,3.9c3.5,0.8,12.6-4.7,12.6-13.8C82.8,81.6,73,73.7,70.2,70.9z"/>
	<path d="M89.9,43.4c-5.1-2-11.4,2-14.5,8.6c-3.1,6.7-0.8,14.1,4.3,16.1c5.1,2.4,11.4-2,14.5-8.6C97.3,52.9,95,45.4,89.9,43.4z"/>
</g>
</svg>
