<svg xmlns="http://www.w3.org/2000/svg" xmlns:xlink="http://www.w3.org/1999/xlink" viewBox="0 0 100 125" version="1.1" x="0px" y="0px"><title>animal</title><desc>Created with Sketch.</desc><g stroke="none" stroke-width="1" fill="none" fill-rule="evenodd"><path d="M50.0618602,47.6529409 C53.1300675,47.6529409 54.592403,51.4048396 55.2443126,52.1139912 C55.8962222,52.8231428 58.473154,54.7807256 58.473154,57.2678547 C58.473154,59.5517324 56.1718196,60.9218149 55.2443126,60.8057332 C53.5574125,60.59461 51.2712097,59.6907893 50.0618602,59.847915 C48.8525108,59.6907893 46.566308,60.59461 44.8794079,60.8057332 C43.9519009,60.9218149 41.6505665,59.5517324 41.6505665,57.2678547 C41.6505665,54.7807256 44.2274983,52.8231428 44.8794079,52.1139912 C45.5313175,51.4048396 46.993653,47.6529409 50.0618602,47.6529409 Z M46.604016,46.9182506 C45.0836041,47.1049337 43.6389881,45.5290285 43.3773759,43.3983679 C43.1157637,41.2677072 44.1362224,39.389129 45.6566343,39.2024458 C47.1770462,39.0157627 48.6216622,40.5916679 48.8832744,42.7223286 C49.1448867,44.8529892 48.1244279,46.7315675 46.604016,46.9182506 Z M42.3403707,51.5216455 C41.0045971,52.0613331 39.3531752,51.0915923 38.6518166,49.355669 C37.950458,47.6197456 38.464753,45.7749984 39.8005267,45.2353108 C41.1363003,44.6956232 42.7877222,45.665364 43.4890808,47.4012873 C44.1904394,49.1372107 43.6761444,50.9819579 42.3403707,51.5216455 Z M53.395984,46.9279753 C51.8755721,46.7412922 50.8551133,44.8627139 51.1167256,42.7320533 C51.3783378,40.6013926 52.8229538,39.0254875 54.3433657,39.2121706 C55.8637776,39.3988537 56.8842363,41.277432 56.6226241,43.4080926 C56.3610119,45.5387533 54.9163959,47.1146584 53.395984,46.9279753 Z M57.6596293,51.5313702 C56.3238556,50.9916826 55.8095606,49.1469354 56.5109192,47.4110121 C57.2122778,45.6750887 58.8636997,44.705348 60.1994733,45.2450355 C61.535247,45.7847231 62.049542,47.6294703 61.3481834,49.3653937 C60.6468248,51.101317 58.9954029,52.0710578 57.6596293,51.5313702 Z" fill="#000000"/></g><text x="0" y="115" fill="#000000" font-size="5px" font-weight="bold" font-family="'Helvetica Neue', Helvetica, Arial-Unicode, Arial, Sans-serif">Created by Rauan</text><text x="0" y="120" fill="#000000" font-size="5px" font-weight="bold" font-family="'Helvetica Neue', Helvetica, Arial-Unicode, Arial, Sans-serif">from the Noun Project</text></svg>