<svg enable-background="new 0 0 100 125" viewBox="0 0 100 125" xmlns="http://www.w3.org/2000/svg"><path d="m62.8 50.1c5.9.8 11.8-5.5 12.6-13.8s-3.1-15.7-9-16.5-11.8 5.5-12.6 13.8c-.9 8.3 3.1 15.7 9 16.5z"/><path d="m23.5 52.1c-2.8-7.1-9.5-10.6-14.6-8.7s-7.1 9.4-4.3 16.1c2.8 7.1 9.4 10.6 14.5 8.6 5.5-1.9 7.1-8.9 4.4-16z"/><path d="m36 50.1c5.9-.8 9.8-8.3 9-16.5-.8-8.3-6.7-14.5-12.6-13.8-5.9.8-9.8 8.3-9 16.5s6.7 14.6 12.6 13.8z"/><path d="m70.2 70.9c-2.8-2.8-8.3-17.7-20.4-17.7s-18.1 14.6-20.4 17.7c-2.4 3.2-12.6 10.7-12.6 20.5 0 8.6 9 14.1 12.6 13.8 6.7-1.2 15.7-4.7 20.4-3.9 4.7-.4 13.8 3.1 20.4 3.9 3.5.8 12.6-4.7 12.6-13.8 0-9.8-9.8-17.7-12.6-20.5z"/><path d="m89.9 43.4c-5.1-2-11.4 2-14.5 8.6-3.1 6.7-.8 14.1 4.3 16.1 5.1 2.4 11.4-2 14.5-8.6s.8-14.1-4.3-16.1z"/></svg>