<?xml version="1.0" encoding="utf-8"?>
<!-- Generator: Adobe Illustrator 23.0.6, SVG Export Plug-In . SVG Version: 6.00 Build 0)  -->
<svg version="1.1" id="Layer_1" xmlns="http://www.w3.org/2000/svg" xmlns:xlink="http://www.w3.org/1999/xlink" x="0px" y="0px"
	 viewBox="0 0 333 416.2" style="enable-background:new 0 0 333 416.2;" xml:space="preserve">
<style type="text/css">
	.st0{fill-rule:evenodd;clip-rule:evenodd;}
</style>
<g>
	<path class="st0" d="M167,150.6c5,0,9,1,13,3l19-17c-5,13,2,27-10,38c0,4-2,10-4,15c12-9,21-24,27-37c5-11,14-11,23-11
		c-3,2-4,3-5,5c3,1,6,2,7,3c-4,1-4,1-6,3c33,7,94,29,94,68c-3-8-12-6-25-3c-14,3-20,7-19,15c-9-6-9-8-24-9c-16,0-15,3-22,8
		c-10-2-19-3-25,7c7,4,10,11,8,20c16,0,19,4,15,12c-3-7-5-9-9-6c4,3,8,7,3,14c0-4-2-10-6-12c0,4-1,13-3,13c0-5-2-9-3-13
		c-5,0-5-4-4-7c-18-7-31,4-44,11c-14-7-27-18-44-11c0,3,1,7-4,7c-2,4-3,8-4,13c-2,0-3-9-2-13c-5,2-6,8-7,12c-5-7,0-11,4-14
		c-4-3-7-1-10,6c-4-8,0-12,16-12c-2-9,1-16,7-20c-6-10-15-9-25-7c-6-5-5-8-22-8c-15,1-15,3-23,9c0-8-6-12-19-15c-14-3-22-5-26,3
		c0-39,62-61,94-68c-2-2-2-2-6-3c1-1,5-2,7-3c0-2-2-3-4-5c8,0,18,0,22,11c6,13,15,28,27,37c-2-5-4-11-4-15c-12-11-4-25-9-38l19,17
		C158,151.6,161,150.6,167,150.6z M158,167.6c-1,0-2,1-2,2c0,0,1,1,2,1s1-1,1-1C159,168.6,159,167.6,158,167.6z M163,168.6
		c-3-3-6-5-9-7c-1,4-2,8,1,11C160,176.6,164,172.6,163,168.6z M176,167.6c1,0,1,1,1,2c0,0,0,1-1,1s-2-1-2-1
		C174,168.6,175,167.6,176,167.6z M170,168.6c3-3,6-5,9-7c1,4,2,8-1,11C174,176.6,170,172.6,170,168.6z"/>
</g>
</svg>
