<svg enable-background="new 0 0 333 416.2" viewBox="0 0 333 416.2" xmlns="http://www.w3.org/2000/svg"><path clip-rule="evenodd" d="m167 150.6c5 0 9 1 13 3l19-17c-5 13 2 27-10 38 0 4-2 10-4 15 12-9 21-24 27-37 5-11 14-11 23-11-3 2-4 3-5 5 3 1 6 2 7 3-4 1-4 1-6 3 33 7 94 29 94 68-3-8-12-6-25-3-14 3-20 7-19 15-9-6-9-8-24-9-16 0-15 3-22 8-10-2-19-3-25 7 7 4 10 11 8 20 16 0 19 4 15 12-3-7-5-9-9-6 4 3 8 7 3 14 0-4-2-10-6-12 0 4-1 13-3 13 0-5-2-9-3-13-5 0-5-4-4-7-18-7-31 4-44 11-14-7-27-18-44-11 0 3 1 7-4 7-2 4-3 8-4 13-2 0-3-9-2-13-5 2-6 8-7 12-5-7 0-11 4-14-4-3-7-1-10 6-4-8 0-12 16-12-2-9 1-16 7-20-6-10-15-9-25-7-6-5-5-8-22-8-15 1-15 3-23 9 0-8-6-12-19-15-14-3-22-5-26 3 0-39 62-61 94-68-2-2-2-2-6-3 1-1 5-2 7-3 0-2-2-3-4-5 8 0 18 0 22 11 6 13 15 28 27 37-2-5-4-11-4-15-12-11-4-25-9-38l19 17c4-2 7-3 13-3zm-9 17c-1 0-2 1-2 2 0 0 1 1 2 1s1-1 1-1c0-1 0-2-1-2zm5 1c-3-3-6-5-9-7-1 4-2 8 1 11 5 4 9 0 8-4zm13-1c1 0 1 1 1 2 0 0 0 1-1 1s-2-1-2-1c0-1 1-2 2-2zm-6 1c3-3 6-5 9-7 1 4 2 8-1 11-4 4-8 0-8-4z" fill-rule="evenodd"/></svg>