<svg xmlns="http://www.w3.org/2000/svg" xmlns:xlink="http://www.w3.org/1999/xlink" version="1.1" x="0px" y="0px" viewBox="0 0 100 125" enable-background="new 0 0 100 100" xml:space="preserve"><path d="M40.423,28.277c-1.32,0-2.393,1.075-2.393,2.394c0,1.321,1.072,2.396,2.393,2.396c1.321,0,2.396-1.075,2.396-2.396  C42.818,29.353,41.744,28.277,40.423,28.277L40.423,28.277z"/><path d="M59.578,28.277c-1.321,0-2.395,1.075-2.395,2.394c0,1.321,1.071,2.396,2.395,2.396c1.318,0,2.395-1.075,2.395-2.396  C61.973,29.353,60.896,28.277,59.578,28.277L59.578,28.277z"/><path d="M40.423,28.277c-1.32,0-2.393,1.075-2.393,2.394c0,1.321,1.072,2.396,2.393,2.396c1.321,0,2.396-1.075,2.396-2.396  C42.818,29.353,41.744,28.277,40.423,28.277L40.423,28.277z"/><path d="M59.578,28.277c-1.321,0-2.395,1.075-2.395,2.394c0,1.321,1.071,2.396,2.395,2.396c1.318,0,2.395-1.075,2.395-2.396  C61.973,29.353,60.896,28.277,59.578,28.277L59.578,28.277z"/><g><path fill="none" d="M45.212,30.671c0-2.642-2.146-4.788-4.789-4.788c-2.64,0-4.788,2.146-4.788,4.788s2.148,4.791,4.788,4.791   C43.065,35.462,45.212,33.312,45.212,30.671z"/><path fill="none" d="M59.578,25.883c-2.641,0-4.789,2.146-4.789,4.788s2.148,4.791,4.789,4.791s4.788-2.149,4.788-4.791   S62.219,25.883,59.578,25.883z"/><g><path fill="none" d="M45.212,30.671c0-2.642-2.146-4.788-4.789-4.788c-2.64,0-4.788,2.146-4.788,4.788s2.148,4.791,4.788,4.791    C43.065,35.462,45.212,33.312,45.212,30.671z"/><path fill="none" d="M59.578,25.883c-2.641,0-4.789,2.146-4.789,4.788s2.148,4.791,4.789,4.791s4.788-2.149,4.788-4.791    S62.219,25.883,59.578,25.883z"/><g><path fill="none" d="M50.001,35.556c-5.28,0-9.575,4.295-9.575,9.576c0,5.282,4.295,9.584,9.575,9.584     c5.282,0,9.577-4.304,9.577-9.584C59.578,39.851,55.283,35.556,50.001,35.556z"/><path fill="none" d="M59.578,25.883c-2.641,0-4.789,2.146-4.789,4.788s2.148,4.791,4.789,4.791s4.788-2.149,4.788-4.791     S62.219,25.883,59.578,25.883z"/><path fill="none" d="M45.212,30.671c0-2.642-2.146-4.788-4.789-4.788c-2.64,0-4.788,2.146-4.788,4.788s2.148,4.791,4.788,4.791     C43.065,35.462,45.212,33.312,45.212,30.671z"/><g><path fill="none" d="M50.001,35.556c-5.28,0-9.575,4.295-9.575,9.576c0,5.282,4.295,9.584,9.575,9.584      c5.282,0,9.577-4.304,9.577-9.584C59.578,39.851,55.283,35.556,50.001,35.556z"/><path fill="none" d="M45.212,30.671c0-2.642-2.146-4.788-4.789-4.788c-2.64,0-4.788,2.146-4.788,4.788s2.148,4.791,4.788,4.791      C43.065,35.462,45.212,33.312,45.212,30.671z"/><path fill="none" d="M59.578,25.883c-2.641,0-4.789,2.146-4.789,4.788s2.148,4.791,4.789,4.791s4.788-2.149,4.788-4.791      S62.219,25.883,59.578,25.883z"/><g><path fill="none" d="M40.426,45.132c0,5.282,4.295,9.584,9.575,9.584c5.282,0,9.577-4.304,9.577-9.584       c0-5.281-4.295-9.576-9.577-9.576C44.721,35.556,40.426,39.851,40.426,45.132z"/><path fill="none" d="M45.212,30.671c0-2.642-2.146-4.788-4.789-4.788C43.065,25.883,45.212,28.029,45.212,30.671z"/><path fill="none" d="M26.702,17.72c-1.868,1.868-1.867,4.904,0,6.771c0.811,0.811,1.847,1.25,2.908,1.354l-1.001-6.24       l6.216,1.003c-0.111-1.055-0.545-2.082-1.353-2.888C31.605,15.854,28.568,15.854,26.702,17.72z"/><path fill="none" d="M70.41,25.827c1.055-0.11,2.081-0.546,2.887-1.352c1.866-1.866,1.866-4.904,0-6.771       c-1.865-1.867-4.902-1.867-6.771,0c-0.812,0.813-1.248,1.847-1.354,2.909l6.238-1.002L70.41,25.827z"/><path d="M14.905,90.732h70.189c0-14.027-8.275-26.153-20.199-31.769c5.506-4.39,9.045-11.147,9.045-18.723       c0-1.853-0.219-3.653-0.615-5.39c5.892-1.791,10.191-7.271,10.191-13.741c0-7.92-6.442-14.363-14.363-14.363       c-6.467,0-11.94,4.295-13.738,10.178c-1.738-0.402-3.551-0.624-5.413-0.624c-1.862,0-3.671,0.222-5.411,0.624       C42.791,11.044,37.313,6.75,30.85,6.75c-7.92,0-14.364,6.443-14.364,14.362c0,6.471,4.301,11.95,10.194,13.741       c-0.4,1.735-0.62,3.537-0.62,5.39c0,7.574,3.539,14.333,9.045,18.723C23.182,64.579,14.905,76.705,14.905,90.732z        M66.525,17.704c1.869-1.867,4.906-1.867,6.771,0c1.866,1.867,1.866,4.905,0,6.771c-0.806,0.806-1.832,1.242-2.887,1.352       l0.999-6.216l-6.238,1.002C65.277,19.551,65.714,18.517,66.525,17.704z M28.609,19.605l1.001,6.24       c-1.061-0.104-2.097-0.543-2.908-1.354c-1.867-1.867-1.868-4.903,0-6.771c1.866-1.866,4.903-1.866,6.77,0       c0.808,0.806,1.242,1.833,1.353,2.888L28.609,19.605z M59.578,25.883c2.641,0,4.788,2.146,4.788,4.788       s-2.147,4.791-4.788,4.791s-4.789-2.149-4.789-4.791S56.938,25.883,59.578,25.883z M59.578,45.132       c0,5.28-4.295,9.584-9.577,9.584c-5.28,0-9.575-4.302-9.575-9.584c0-5.281,4.295-9.576,9.575-9.576       C55.283,35.556,59.578,39.851,59.578,45.132z M40.423,25.883c2.643,0,4.789,2.146,4.789,4.788s-2.146,4.791-4.789,4.791       c-2.64,0-4.788-2.149-4.788-4.791S37.783,25.883,40.423,25.883z"/></g></g></g></g></g><path d="M53.83,47.736c0,0.793-0.645,1.437-1.436,1.437c-0.789,0-1.432-0.639-1.438-1.429c0-0.002,0-0.005,0-0.008h-0.001v-3.705  c0.844-0.371,1.438-1.214,1.438-2.191c0-1.323-1.074-2.396-2.396-2.396c-1.321,0-2.393,1.074-2.393,2.396  c0,0.978,0.591,1.82,1.435,2.191v3.705c0,0.003,0.002,0.006,0.002,0.008c-0.006,0.79-0.646,1.429-1.436,1.432  c-0.793,0-1.438-0.646-1.438-1.439h-1.916c0,1.85,1.505,3.354,3.354,3.354C48.544,51.09,49.39,50.7,50,50.078  c0.607,0.622,1.455,1.012,2.395,1.012c1.848,0,3.352-1.503,3.352-3.353L53.83,47.736L53.83,47.736z"/><text x="0" y="115" fill="#000000" font-size="5px" font-weight="bold" font-family="'Helvetica Neue', Helvetica, Arial-Unicode, Arial, Sans-serif">Created by David García</text><text x="0" y="120" fill="#000000" font-size="5px" font-weight="bold" font-family="'Helvetica Neue', Helvetica, Arial-Unicode, Arial, Sans-serif">from the Noun Project</text></svg>