<?xml version="1.0" encoding="utf-8"?>
<!-- Generator: Adobe Illustrator 23.0.6, SVG Export Plug-In . SVG Version: 6.00 Build 0)  -->
<svg version="1.1" id="Layer_1" xmlns="http://www.w3.org/2000/svg" xmlns:xlink="http://www.w3.org/1999/xlink" x="0px" y="0px"
	 viewBox="0 0 100 125" style="enable-background:new 0 0 100 125;" xml:space="preserve">
<style type="text/css">
	.st0{fill:none;}
</style>
<path d="M40.4,42.1c-1.3,0-2.4,1.1-2.4,2.4s1.1,2.4,2.4,2.4c1.3,0,2.4-1.1,2.4-2.4C42.8,43.2,41.7,42.1,40.4,42.1L40.4,42.1z"/>
<path d="M59.6,42.1c-1.3,0-2.4,1.1-2.4,2.4s1.1,2.4,2.4,2.4c1.3,0,2.4-1.1,2.4-2.4S60.9,42.1,59.6,42.1L59.6,42.1z"/>
<path d="M40.4,42.1c-1.3,0-2.4,1.1-2.4,2.4s1.1,2.4,2.4,2.4c1.3,0,2.4-1.1,2.4-2.4C42.8,43.2,41.7,42.1,40.4,42.1L40.4,42.1z"/>
<path d="M59.6,42.1c-1.3,0-2.4,1.1-2.4,2.4s1.1,2.4,2.4,2.4c1.3,0,2.4-1.1,2.4-2.4S60.9,42.1,59.6,42.1L59.6,42.1z"/>
<g>
	<path class="st0" d="M44.2,42.2c0-3-2.4-5.5-5.5-5.5c-3,0-5.5,2.4-5.5,5.5s2.4,5.5,5.5,5.5C41.8,47.7,44.2,45.2,44.2,42.2z"/>
	<path class="st0" d="M60.7,36.7c-3,0-5.5,2.4-5.5,5.5c0,3.1,2.4,5.5,5.5,5.5c3.1,0,5.5-2.4,5.5-5.5C66.3,39.1,63.7,36.7,60.7,36.7z
		"/>
	<g>
		<path class="st0" d="M44.2,42.2c0-3-2.4-5.5-5.5-5.5c-3,0-5.5,2.4-5.5,5.5s2.4,5.5,5.5,5.5C41.8,47.7,44.2,45.2,44.2,42.2z"/>
		<path class="st0" d="M60.7,36.7c-3,0-5.5,2.4-5.5,5.5c0,3.1,2.4,5.5,5.5,5.5c3.1,0,5.5-2.4,5.5-5.5C66.3,39.1,63.7,36.7,60.7,36.7
			z"/>
		<g>
			<path class="st0" d="M49.7,47.8c-6.1,0-11,4.9-11,11s4.9,11,11,11s11-4.9,11-11S55.8,47.8,49.7,47.8z"/>
			<path class="st0" d="M60.7,36.7c-3,0-5.5,2.4-5.5,5.5c0,3.1,2.4,5.5,5.5,5.5c3.1,0,5.5-2.4,5.5-5.5
				C66.3,39.1,63.7,36.7,60.7,36.7z"/>
			<path class="st0" d="M44.2,42.2c0-3-2.4-5.5-5.5-5.5c-3,0-5.5,2.4-5.5,5.5s2.4,5.5,5.5,5.5C41.8,47.7,44.2,45.2,44.2,42.2z"/>
			<g>
				<path class="st0" d="M49.7,47.8c-6.1,0-11,4.9-11,11s4.9,11,11,11s11-4.9,11-11S55.8,47.8,49.7,47.8z"/>
				<path class="st0" d="M44.2,42.2c0-3-2.4-5.5-5.5-5.5c-3,0-5.5,2.4-5.5,5.5s2.4,5.5,5.5,5.5C41.8,47.7,44.2,45.2,44.2,42.2z"/>
				<path class="st0" d="M60.7,36.7c-3,0-5.5,2.4-5.5,5.5c0,3.1,2.4,5.5,5.5,5.5c3.1,0,5.5-2.4,5.5-5.5
					C66.3,39.1,63.7,36.7,60.7,36.7z"/>
				<g>
					<path class="st0" d="M38.7,58.7c0,6.1,4.9,11,11,11s11-4.9,11-11s-4.9-11-11-11C43.7,47.8,38.7,52.7,38.7,58.7z"/>
					<path class="st0" d="M44.2,42.2c0-3-2.4-5.5-5.5-5.5C41.8,36.7,44.2,39.1,44.2,42.2z"/>
					<path class="st0" d="M23,27.3c-2.2,2.2-2.2,5.6,0,7.8c0.9,0.9,2.1,1.4,3.3,1.6l-1.1-7.1l7.1,1.1c-0.1-1.3-0.6-2.4-1.6-3.3
						C28.6,25.2,25.2,25.2,23,27.3z"/>
					<path class="st0" d="M73.1,36.5c1.3-0.1,2.4-0.6,3.3-1.6c2.2-2.2,2.2-5.6,0-7.8c-2.2-2.2-5.6-2.2-7.8,0
						c-0.9,0.9-1.4,2.1-1.6,3.3l7.1-1.1L73.1,36.5z"/>
					<path d="M9.5,111H90c0-16.1-9.5-30.1-23.2-36.5c6.3-5,10.3-12.7,10.3-21.5c0-2.2-0.2-4.2-0.7-6.2c6.8-2.1,11.7-8.4,11.7-15.7
						c0-9.1-7.3-16.5-16.5-16.5c-7.5,0-13.7,4.9-15.7,11.7c-2-0.5-4.1-0.7-6.2-0.7c-2.2,0-4.2,0.2-6.2,0.7
						c-2.1-6.8-8.4-11.6-15.7-11.6c-9.1,0-16.5,7.3-16.5,16.5C11.3,38.7,16.2,45,23,47c-0.5,2-0.7,4-0.7,6.2c0,8.7,4,16.4,10.3,21.5
						C19,81.1,9.5,94.9,9.5,111z M68.7,27.3c2.2-2.2,5.6-2.2,7.8,0c2.2,2.2,2.2,5.6,0,7.8c-0.9,0.9-2.1,1.4-3.3,1.6l1.1-7.1
						l-7.1,1.1C67.3,29.4,67.7,28.2,68.7,27.3z M25.2,29.4l1.1,7.1c-1.3-0.1-2.4-0.6-3.3-1.6c-2.2-2.2-2.2-5.6,0-7.8
						c2.2-2.2,5.6-2.2,7.8,0c0.9,0.9,1.4,2.1,1.6,3.3L25.2,29.4z M60.7,36.7c3,0,5.5,2.4,5.5,5.5c0,3.1-2.4,5.5-5.5,5.5
						c-3.1,0-5.5-2.4-5.5-5.5C55.2,39.1,57.6,36.7,60.7,36.7z M60.7,58.7c0,6.1-4.9,11-11,11s-11-4.9-11-11s4.9-11,11-11
						C55.8,47.8,60.7,52.7,60.7,58.7z M38.7,36.7c3,0,5.5,2.4,5.5,5.5c0,3.1-2.4,5.5-5.5,5.5c-3,0-5.5-2.4-5.5-5.5
						C33.2,39.1,35.7,36.7,38.7,36.7z"/>
				</g>
			</g>
		</g>
	</g>
</g>
<path d="M53.8,61.5c0,0.8-0.6,1.4-1.4,1.4c-0.8,0-1.4-0.6-1.4-1.4l0,0l0,0v-3.7c0.8-0.4,1.4-1.2,1.4-2.2c0-1.3-1.1-2.4-2.4-2.4
	c-1.3,0-2.4,1.1-2.4,2.4c0,1,0.6,1.8,1.4,2.2v3.7l0,0c0,0.8-0.6,1.4-1.4,1.4c-0.8,0-1.4-0.6-1.4-1.4h-1.9c0,1.8,1.5,3.4,3.4,3.4
	c0.9,0,1.8-0.4,2.4-1c0.6,0.6,1.5,1,2.4,1c1.8,0,3.4-1.5,3.4-3.4H53.8L53.8,61.5z"/>
</svg>
