<svg enable-background="new 0 0 100 125" viewBox="0 0 100 125" xmlns="http://www.w3.org/2000/svg"><path d="m40.4 42.1c-1.3 0-2.4 1.1-2.4 2.4s1.1 2.4 2.4 2.4 2.4-1.1 2.4-2.4-1.1-2.4-2.4-2.4z"/><path d="m59.6 42.1c-1.3 0-2.4 1.1-2.4 2.4s1.1 2.4 2.4 2.4 2.4-1.1 2.4-2.4-1.1-2.4-2.4-2.4z"/><path d="m40.4 42.1c-1.3 0-2.4 1.1-2.4 2.4s1.1 2.4 2.4 2.4 2.4-1.1 2.4-2.4-1.1-2.4-2.4-2.4z"/><path d="m59.6 42.1c-1.3 0-2.4 1.1-2.4 2.4s1.1 2.4 2.4 2.4 2.4-1.1 2.4-2.4-1.1-2.4-2.4-2.4z"/><g fill="none"><path d="m44.2 42.2c0-3-2.4-5.5-5.5-5.5-3 0-5.5 2.4-5.5 5.5s2.4 5.5 5.5 5.5 5.5-2.5 5.5-5.5z"/><path d="m60.7 36.7c-3 0-5.5 2.4-5.5 5.5s2.4 5.5 5.5 5.5 5.5-2.4 5.5-5.5c.1-3.1-2.5-5.5-5.5-5.5z"/><path d="m44.2 42.2c0-3-2.4-5.5-5.5-5.5-3 0-5.5 2.4-5.5 5.5s2.4 5.5 5.5 5.5 5.5-2.5 5.5-5.5z"/><path d="m60.7 36.7c-3 0-5.5 2.4-5.5 5.5s2.4 5.5 5.5 5.5 5.5-2.4 5.5-5.5c.1-3.1-2.5-5.5-5.5-5.5z"/><path d="m49.7 47.8c-6.1 0-11 4.9-11 11s4.9 11 11 11 11-4.9 11-11-4.9-11-11-11z"/><path d="m60.7 36.7c-3 0-5.5 2.4-5.5 5.5s2.4 5.5 5.5 5.5 5.5-2.4 5.5-5.5c.1-3.1-2.5-5.5-5.5-5.5z"/><path d="m44.2 42.2c0-3-2.4-5.5-5.5-5.5-3 0-5.5 2.4-5.5 5.5s2.4 5.5 5.5 5.5 5.5-2.5 5.5-5.5z"/><path d="m49.7 47.8c-6.1 0-11 4.9-11 11s4.9 11 11 11 11-4.9 11-11-4.9-11-11-11z"/><path d="m44.2 42.2c0-3-2.4-5.5-5.5-5.5-3 0-5.5 2.4-5.5 5.5s2.4 5.5 5.5 5.5 5.5-2.5 5.5-5.5z"/><path d="m60.7 36.7c-3 0-5.5 2.4-5.5 5.5s2.4 5.5 5.5 5.5 5.5-2.4 5.5-5.5c.1-3.1-2.5-5.5-5.5-5.5z"/><path d="m38.7 58.7c0 6.1 4.9 11 11 11s11-4.9 11-11-4.9-11-11-11c-6 .1-11 5-11 11z"/><path d="m44.2 42.2c0-3-2.4-5.5-5.5-5.5 3.1 0 5.5 2.4 5.5 5.5z"/><path d="m23 27.3c-2.2 2.2-2.2 5.6 0 7.8.9.9 2.1 1.4 3.3 1.6l-1.1-7.1 7.1 1.1c-.1-1.3-.6-2.4-1.6-3.3-2.1-2.2-5.5-2.2-7.7-.1z"/><path d="m73.1 36.5c1.3-.1 2.4-.6 3.3-1.6 2.2-2.2 2.2-5.6 0-7.8s-5.6-2.2-7.8 0c-.9.9-1.4 2.1-1.6 3.3l7.1-1.1z"/></g><path d="m9.5 111h80.5c0-16.1-9.5-30.1-23.2-36.5 6.3-5 10.3-12.7 10.3-21.5 0-2.2-.2-4.2-.7-6.2 6.8-2.1 11.7-8.4 11.7-15.7 0-9.1-7.3-16.5-16.5-16.5-7.5 0-13.7 4.9-15.7 11.7-2-.5-4.1-.7-6.2-.7-2.2 0-4.2.2-6.2.7-2.1-6.8-8.4-11.6-15.7-11.6-9.1 0-16.5 7.3-16.5 16.5 0 7.5 4.9 13.8 11.7 15.8-.5 2-.7 4-.7 6.2 0 8.7 4 16.4 10.3 21.5-13.6 6.4-23.1 20.2-23.1 36.3zm59.2-83.7c2.2-2.2 5.6-2.2 7.8 0s2.2 5.6 0 7.8c-.9.9-2.1 1.4-3.3 1.6l1.1-7.1-7.1 1.1c.1-1.3.5-2.5 1.5-3.4zm-43.5 2.1 1.1 7.1c-1.3-.1-2.4-.6-3.3-1.6-2.2-2.2-2.2-5.6 0-7.8s5.6-2.2 7.8 0c.9.9 1.4 2.1 1.6 3.3zm35.5 7.3c3 0 5.5 2.4 5.5 5.5s-2.4 5.5-5.5 5.5-5.5-2.4-5.5-5.5 2.4-5.5 5.5-5.5zm0 22c0 6.1-4.9 11-11 11s-11-4.9-11-11 4.9-11 11-11c6.1.1 11 5 11 11zm-22-22c3 0 5.5 2.4 5.5 5.5s-2.4 5.5-5.5 5.5c-3 0-5.5-2.4-5.5-5.5s2.5-5.5 5.5-5.5z"/><path d="m53.8 61.5c0 .8-.6 1.4-1.4 1.4s-1.4-.6-1.4-1.4v-3.7c.8-.4 1.4-1.2 1.4-2.2 0-1.3-1.1-2.4-2.4-2.4s-2.4 1.1-2.4 2.4c0 1 .6 1.8 1.4 2.2v3.7c0 .8-.6 1.4-1.4 1.4s-1.4-.6-1.4-1.4h-1.9c0 1.8 1.5 3.4 3.4 3.4.9 0 1.8-.4 2.4-1 .6.6 1.5 1 2.4 1 1.8 0 3.4-1.5 3.4-3.4z"/></svg>