<?xml version="1.0" encoding="utf-8"?>
<!-- Generator: Adobe Illustrator 23.0.6, SVG Export Plug-In . SVG Version: 6.00 Build 0)  -->
<svg version="1.1" id="Layer_1" xmlns="http://www.w3.org/2000/svg" xmlns:xlink="http://www.w3.org/1999/xlink" x="0px" y="0px"
	 viewBox="0 0 333 416.2" style="enable-background:new 0 0 333 416.2;" xml:space="preserve">
<style type="text/css">
	.st0{fill-rule:evenodd;clip-rule:evenodd;}
</style>
<g>
	<path class="st0" d="M61.9,106.4l18,85c-12,12-19,27-19,42c0,7,1,14,4,21c-4,0-8,0-12,0c-20,2-36,8-42,20c-4,7-4,14,2,19
		c8,6,20-3,13-11c-2-3-6,0-4,3c3,5-3,6-6,4c-4-4-3-8-1-12c5-11,20-16,39-18c4,0,9,0,13,0c2,4,5,7,8,11c-15,1-26,6-32,16
		c-4,7-4,15,2,19c7,5,14,0,15-6c0-4-5-5-6-1c0,4-3,5-5,3c-4-3-4-8-2-12c6-10,17-14,32-14c3,3,7,7,12,10c-7,1-12,3-16,6c0,0-8,7-2,15
		c2,3,8,5,12,2c3-2,0-6-2-4c-2,1-4,1-6,0c-3-4,1-9,2-9c4-4,10-6,19-6c18,12,42,18,69,18c23,0,48-5,69-18c8,0,15,2,19,6c0,0,5,5,1,9
		c-1,1-4,1-6,0c-2-2-5,2-2,4c4,3,10,1,12-2c6-8-2-15-2-15c-4-3-9-5-15-6c4-3,8-7,11-10c15,0,26,4,32,14c3,4,2,9-1,12c-3,2-6,1-6-3
		c-1-4-6-3-5,1c0,6,8,11,14,6c6-4,6-12,3-19c-7-10-18-15-32-16c2-4,5-7,7-11c5,0,9,0,14,0c18,2,33,7,38,18c2,4,3,8-1,12
		c-2,2-9,1-6-4c2-3-1-6-4-3c-6,8,5,17,13,11c6-5,6-12,3-19c-6-12-22-18-43-20c-4,0-8,0-12,0c3-6,4-14,4-21c0-15-7-30-19-42l18-85
		c1,0-52,41-73,57c-10-2-20-4-31-4s-22,2-32,4C113.9,147.4,60.9,106.4,61.9,106.4z M165.9,257.4c13-3,18,2,16,7c-3,6-11,8-16,9
		c-4-1-13-3-15-9C148.9,259.4,153.9,254.4,165.9,257.4z M70.9,215.4c13-5,25-8,37-6c0,2-1,4-1,7c0,12,5,22,11,22c5,0,10-10,10-22v-1
		c10,5,20,14,30,27C136.9,242.4,85.9,243.4,70.9,215.4z M120.9,215.4c3,0,4,2,4,4s-1,4-4,4c-2,0-4-2-4-4S118.9,215.4,120.9,215.4z
		 M261.9,215.4c-13-5-25-8-37-6c0,2,0,4,0,7c0,12-4,22-10,22c-5,0-10-10-10-22v-1c-10,5-20,14-30,27
		C195.9,242.4,245.9,243.4,261.9,215.4z M210.9,215.4c-2,0-4,2-4,4s2,4,4,4c3,0,4-2,4-4S213.9,215.4,210.9,215.4z"/>
</g>
</svg>
