<svg enable-background="new 0 0 333 416.2" viewBox="0 0 333 416.2" xmlns="http://www.w3.org/2000/svg"><path clip-rule="evenodd" d="m61.9 106.4 18 85c-12 12-19 27-19 42 0 7 1 14 4 21-4 0-8 0-12 0-20 2-36 8-42 20-4 7-4 14 2 19 8 6 20-3 13-11-2-3-6 0-4 3 3 5-3 6-6 4-4-4-3-8-1-12 5-11 20-16 39-18h13c2 4 5 7 8 11-15 1-26 6-32 16-4 7-4 15 2 19 7 5 14 0 15-6 0-4-5-5-6-1 0 4-3 5-5 3-4-3-4-8-2-12 6-10 17-14 32-14 3 3 7 7 12 10-7 1-12 3-16 6 0 0-8 7-2 15 2 3 8 5 12 2 3-2 0-6-2-4-2 1-4 1-6 0-3-4 1-9 2-9 4-4 10-6 19-6 18 12 42 18 69 18 23 0 48-5 69-18 8 0 15 2 19 6 0 0 5 5 1 9-1 1-4 1-6 0-2-2-5 2-2 4 4 3 10 1 12-2 6-8-2-15-2-15-4-3-9-5-15-6 4-3 8-7 11-10 15 0 26 4 32 14 3 4 2 9-1 12-3 2-6 1-6-3-1-4-6-3-5 1 0 6 8 11 14 6 6-4 6-12 3-19-7-10-18-15-32-16 2-4 5-7 7-11h14c18 2 33 7 38 18 2 4 3 8-1 12-2 2-9 1-6-4 2-3-1-6-4-3-6 8 5 17 13 11 6-5 6-12 3-19-6-12-22-18-43-20-4 0-8 0-12 0 3-6 4-14 4-21 0-15-7-30-19-42l18-85c1 0-52 41-73 57-10-2-20-4-31-4s-22 2-32 4c-21-16-74-57-73-57zm104 151c13-3 18 2 16 7-3 6-11 8-16 9-4-1-13-3-15-9-2-5 3-10 15-7zm-95-42c13-5 25-8 37-6 0 2-1 4-1 7 0 12 5 22 11 22 5 0 10-10 10-22v-1c10 5 20 14 30 27-21 0-72 1-87-27zm50 0c3 0 4 2 4 4s-1 4-4 4c-2 0-4-2-4-4s2-4 4-4zm141 0c-13-5-25-8-37-6v7c0 12-4 22-10 22-5 0-10-10-10-22v-1c-10 5-20 14-30 27 21 0 71 1 87-27zm-51 0c-2 0-4 2-4 4s2 4 4 4c3 0 4-2 4-4s-1-4-4-4z" fill-rule="evenodd"/></svg>