<svg xmlns="http://www.w3.org/2000/svg" xmlns:xlink="http://www.w3.org/1999/xlink" xml:space="preserve" style="shape-rendering:geometricPrecision;text-rendering:geometricPrecision;image-rendering:optimizeQuality;" viewBox="0 0 100 125" x="0px" y="0px" fill-rule="evenodd" clip-rule="evenodd"><defs><style type="text/css">
   
    .fil0 {fill:black}
   
  </style></defs><g><path class="fil0" d="M42.4161 22.4553c9.22803,0 17.51,4.11972 23.1628,10.6442 4.68783,-3.18782 9.75834,-5.70831 16.6312,-6.10517 8.94928,-0.518508 12.2812,4.76106 7.74455,14.9269 -3.04372,6.81856 -9.50086,11.1899 -16.8627,15.0863 -1.59686,15.7702 -14.7237,28.0762 -30.6758,28.0762 -8.92094,0 -16.9572,-3.85042 -22.5888,-10.0005 -6.79966,-1.77521 -11.7958,-7.68313 -11.7958,-14.6966 0,-3.6957 1.38663,-7.08431 3.69452,-9.72409 0.536225,-5.51933 2.48388,-10.6182 5.47209,-14.9198 -1.32639,-3.99806 -1.16576,-9.18669 -0.757093,-14.0907 0.604729,-7.24612 5.19689,-8.05991 8.98944,-5.2028 2.99648,2.2571 5.12839,4.79768 7.73274,7.441 2.92089,-0.931897 6.02839,-1.43505 9.25283,-1.43505zm-20.3647 14.034c1.65592,0 -0.529138,4.99965 -2.22521,4.99965 -1.6571,0 0.527957,-4.99965 2.22521,-4.99965zm-0.817329 1.08662c0.468901,0 -0.14882,1.41379 -0.628351,1.41379 -0.468901,0 0.14882,-1.41379 0.628351,-1.41379zm24.2801 4.8898c1.52127,0 2.75671,1.23544 2.75671,2.7579 0,1.52127 -1.23544,2.75671 -2.75671,2.75671 -1.52245,0 -2.7579,-1.23544 -2.7579,-2.75671 0,-1.52245 1.23544,-2.7579 2.7579,-2.7579zm-0.720478 1.19883c1.02639,0 1.02639,1.55907 0,1.55907 -1.0252,0 -1.0252,-1.55907 0,-1.55907zm-32.2786 11.308c-0.274018,-0.68032 -0.426381,-1.30395 -0.51024,-1.86379 -1.34883,1.98899 -2.16262,4.33232 -2.24647,6.84809 0.4252,2.17561 1.33702,3.71578 2.54175,4.70555 1.64411,1.35237 3.80554,1.66419 5.90083,1.32403 2.92089,-0.474807 5.95753,-2.22994 8.09534,-4.82957 0.503154,-0.611816 1.43741,0.155907 0.933078,0.767723 -4.25555,5.17563 -12.671,7.79652 -16.8214,2.51813 1.82954,5.48744 7.26856,9.46779 13.6938,9.46779 7.92408,0 14.3517,-6.05556 14.3517,-13.5237 0,-10.4328 -11.9469,-16.786 -21.3663,-11.8005 1.35828,-0.0826778 2.72482,0.0578745 3.63074,0.56339 1.11733,0.623627 0.844495,2.45199 -0.157088,3.13113 -1.57442,1.06772 -3.30475,1.89096 -5.3528,2.74963 -1.39844,0.585831 -2.4827,0.460634 -2.69293,-0.0578745zm10.4068 -20.4403c1.2567,0 1.38781,1.99608 0.291735,4.45633 -1.09489,2.46144 -3.00239,4.45752 -4.25909,4.45752 -1.2567,0 -1.38663,-1.99608 -0.291735,-4.45752 1.09489,-2.46026 3.00239,-4.45633 4.25909,-4.45633zm22.5923 5.77564c2.71301,0 4.91461,2.20159 4.91461,4.91579 0,2.71419 -2.20159,4.91461 -4.91461,4.91461 -2.71419,0 -4.91579,-2.20041 -4.91579,-4.91461 0,-2.71419 2.20159,-4.91579 4.91579,-4.91579zm-16.6903 -14.6517c-1.8449,-2.07994 -3.67798,-3.47129 -6.39336,-5.72721 -2.32915,-1.93466 -3.92365,-1.04174 -3.83035,2.97994 0.0874023,3.802 0.869298,6.32249 1.85553,8.8796 2.41774,-2.49096 5.24414,-4.57208 8.36818,-6.13233zm40.2133 12.3013c3.30239,-2.13073 6.55635,-3.61184 10.5662,-4.64413 5.89375,-1.51655 6.3343,2.276 3.97798,7.30754 -2.12128,4.5272 -6.10399,7.18706 -10.5095,9.73 -0.480712,-4.4835 -1.89214,-8.68235 -4.03468,-12.3934zm0.317719 27.0604c-6.27052,-11.1899 -16.4895,-13.8899 -30.0144,-9.48433 3.66027,10.3442 -5.04925,20.973 -16.61,20.0411 14.9092,13.9088 38.933,8.44259 46.6244,-10.5568zm-33.4975 -15.0226c-0.633076,-12.6166 3.91184,-22.3974 17.0198,-23.8514 -5.015,-1.96301 -10.5379,-2.48388 -15.906,-1.45159 -3.19254,7.42329 -7.21659,14.3978 -12.9533,20.4509 4.67484,-0.0188978 8.88196,1.84253 11.8395,4.85201zm-18.3604 -3.5079c-1.00985,-0.479531 -1.75986,-1.60513 -2.25238,-3.37798 -0.685045,1.80356 -1.20237,3.69334 -1.53072,5.64808 1.13623,-0.91418 2.40829,-1.6819 3.7831,-2.2701z"/></g><text x="0" y="115" fill="#000000" font-size="5px" font-weight="bold" font-family="'Helvetica Neue', Helvetica, Arial-Unicode, Arial, Sans-serif">Created by Rfourtytwo</text><text x="0" y="120" fill="#000000" font-size="5px" font-weight="bold" font-family="'Helvetica Neue', Helvetica, Arial-Unicode, Arial, Sans-serif">from the Noun Project</text></svg>