<?xml version="1.0" encoding="utf-8"?>
<!-- Generator: Adobe Illustrator 23.0.6, SVG Export Plug-In . SVG Version: 6.00 Build 0)  -->
<svg version="1.1" id="Layer_1" xmlns="http://www.w3.org/2000/svg" xmlns:xlink="http://www.w3.org/1999/xlink" x="0px" y="0px"
	 viewBox="0 0 100 125" style="enable-background:new 0 0 100 125;" xml:space="preserve">
<style type="text/css">
	.st0{fill-rule:evenodd;clip-rule:evenodd;}
</style>
<g>
	<path class="st0" d="M41.4,31.8c10.4,0,19.9,4.7,26.3,12c5.3-3.6,11.1-6.5,18.8-6.9c10.1-0.6,14,5.4,8.7,16.9
		C91.9,61.6,84.5,66.5,76.1,71c-1.8,17.9-16.7,31.9-34.8,31.9c-10.1,0-19.3-4.4-25.6-11.3C8,89.5,2.4,82.8,2.4,74.8
		c0-4.2,1.6-8.1,4.2-11c0.6-6.2,2.8-12,6.2-16.9c-1.5-4.5-1.4-10.4-0.9-16c0.7-8.2,5.9-9.2,10.2-5.9c3.4,2.6,5.8,5.4,8.7,8.4
		C34.3,32.4,37.8,31.8,41.4,31.8L41.4,31.8z M18.4,47.7c1.9,0-0.6,5.7-2.5,5.7S16.4,47.7,18.4,47.7z M17.3,49c0.6,0-0.1,1.6-0.7,1.6
		C16.1,50.5,16.9,49,17.3,49z M44.9,54.5c1.7,0,3.2,1.4,3.2,3.2c0,1.7-1.4,3.2-3.2,3.2c-1.7,0-3.2-1.4-3.2-3.2
		C41.9,55.9,43.2,54.5,44.9,54.5z M44.1,55.9c1.1,0,1.1,1.8,0,1.8C43,57.6,43,55.9,44.1,55.9z M7.5,68.7c-0.3-0.8-0.5-1.5-0.6-2.2
		c-1.5,2.3-2.5,4.9-2.5,7.7c0.5,2.5,1.5,4.2,2.8,5.3c1.8,1.6,4.3,1.9,6.7,1.5c3.3-0.6,6.8-2.5,9.2-5.4c0.6-0.7,1.6,0.2,1,0.9
		c-4.9,5.9-14.4,8.9-19.1,2.8c2,6.2,8.3,10.8,15.5,10.8c9,0,16.3-6.9,16.3-15.3C37,63,23.5,55.8,12.7,61.4c1.6-0.1,3.1,0.1,4.1,0.7
		c1.2,0.7,0.9,2.8-0.2,3.5c-1.8,1.2-3.7,2.2-6.1,3.1C8.9,69.4,7.7,69.3,7.5,68.7L7.5,68.7z M19.3,45.4c1.5,0,1.6,2.3,0.3,5.1
		c-1.2,2.8-3.4,5.1-4.9,5.1s-1.6-2.3-0.3-5.1C15.8,47.7,17.9,45.4,19.3,45.4z M44.9,52c3.1,0,5.6,2.5,5.6,5.6s-2.5,5.6-5.6,5.6
		c-3.1,0-5.6-2.5-5.6-5.6S41.9,52,44.9,52z M26,35.4c-2-2.4-4.2-4-7.3-6.5c-2.6-2.2-4.4-1.1-4.3,3.4c0.1,4.3,1,7.1,2.2,10.1
		C19.3,39.5,22.5,37.2,26,35.4z M71.6,49.4c3.7-2.4,7.5-4.1,12-5.2c6.7-1.7,7.1,2.6,4.5,8.3c-2.4,5.1-6.9,8.2-11.9,11
		C75.7,58.4,74.1,53.6,71.6,49.4z M72,80.1c-7.1-12.7-18.7-15.8-34-10.8C42.2,81,32.3,93.1,19.2,92C36,107.9,63.3,101.6,72,80.1
		L72,80.1z M34,63c-0.7-14.3,4.4-25.4,19.3-27.1c-5.7-2.3-11.9-2.8-18-1.7c-3.6,8.4-8.2,16.3-14.8,23.3C25.9,57.5,30.6,59.6,34,63
		L34,63z M13.1,59.1c-1.1-0.6-2-1.8-2.6-3.9c-0.8,2-1.4,4.2-1.7,6.4C10.2,60.5,11.6,59.7,13.1,59.1z"/>
</g>
</svg>
