<svg enable-background="new 0 0 100 125" viewBox="0 0 100 125" xmlns="http://www.w3.org/2000/svg"><path clip-rule="evenodd" d="m41.4 31.8c10.4 0 19.9 4.7 26.3 12 5.3-3.6 11.1-6.5 18.8-6.9 10.1-.6 14 5.4 8.7 16.9-3.3 7.8-10.7 12.7-19.1 17.2-1.8 17.9-16.7 31.9-34.8 31.9-10.1 0-19.3-4.4-25.6-11.3-7.7-2.1-13.3-8.8-13.3-16.8 0-4.2 1.6-8.1 4.2-11 .6-6.2 2.8-12 6.2-16.9-1.5-4.5-1.4-10.4-.9-16 .7-8.2 5.9-9.2 10.2-5.9 3.4 2.6 5.8 5.4 8.7 8.4 3.5-1 7-1.6 10.6-1.6zm-23 15.9c1.9 0-.6 5.7-2.5 5.7s.5-5.7 2.5-5.7zm-1.1 1.3c.6 0-.1 1.6-.7 1.6-.5-.1.3-1.6.7-1.6zm27.6 5.5c1.7 0 3.2 1.4 3.2 3.2 0 1.7-1.4 3.2-3.2 3.2-1.7 0-3.2-1.4-3.2-3.2.2-1.8 1.5-3.2 3.2-3.2zm-.8 1.4c1.1 0 1.1 1.8 0 1.8-1.1-.1-1.1-1.8 0-1.8zm-36.6 12.8c-.3-.8-.5-1.5-.6-2.2-1.5 2.3-2.5 4.9-2.5 7.7.5 2.5 1.5 4.2 2.8 5.3 1.8 1.6 4.3 1.9 6.7 1.5 3.3-.6 6.8-2.5 9.2-5.4.6-.7 1.6.2 1 .9-4.9 5.9-14.4 8.9-19.1 2.8 2 6.2 8.3 10.8 15.5 10.8 9 0 16.3-6.9 16.3-15.3.2-11.8-13.3-19-24.1-13.4 1.6-.1 3.1.1 4.1.7 1.2.7.9 2.8-.2 3.5-1.8 1.2-3.7 2.2-6.1 3.1-1.6.7-2.8.6-3 0zm11.8-23.3c1.5 0 1.6 2.3.3 5.1-1.2 2.8-3.4 5.1-4.9 5.1s-1.6-2.3-.3-5.1c1.4-2.8 3.5-5.1 4.9-5.1zm25.6 6.6c3.1 0 5.6 2.5 5.6 5.6s-2.5 5.6-5.6 5.6-5.6-2.5-5.6-5.6 2.6-5.6 5.6-5.6zm-18.9-16.6c-2-2.4-4.2-4-7.3-6.5-2.6-2.2-4.4-1.1-4.3 3.4.1 4.3 1 7.1 2.2 10.1 2.7-2.9 5.9-5.2 9.4-7zm45.6 14c3.7-2.4 7.5-4.1 12-5.2 6.7-1.7 7.1 2.6 4.5 8.3-2.4 5.1-6.9 8.2-11.9 11-.5-5.1-2.1-9.9-4.6-14.1zm.4 30.7c-7.1-12.7-18.7-15.8-34-10.8 4.2 11.7-5.7 23.8-18.8 22.7 16.8 15.9 44.1 9.6 52.8-11.9zm-38-17.1c-.7-14.3 4.4-25.4 19.3-27.1-5.7-2.3-11.9-2.8-18-1.7-3.6 8.4-8.2 16.3-14.8 23.3 5.4 0 10.1 2.1 13.5 5.5zm-20.9-3.9c-1.1-.6-2-1.8-2.6-3.9-.8 2-1.4 4.2-1.7 6.4 1.4-1.1 2.8-1.9 4.3-2.5z" fill-rule="evenodd"/></svg>