<?xml version="1.0" encoding="utf-8"?>
<!-- Generator: Adobe Illustrator 23.0.6, SVG Export Plug-In . SVG Version: 6.00 Build 0)  -->
<svg version="1.1" id="Layer_1" xmlns="http://www.w3.org/2000/svg" xmlns:xlink="http://www.w3.org/1999/xlink" x="0px" y="0px"
	 viewBox="0 0 333 416.2" style="enable-background:new 0 0 333 416.2;" xml:space="preserve">
<style type="text/css">
	.st0{fill-rule:evenodd;clip-rule:evenodd;}
</style>
<g>
	<path class="st0" d="M35.8,190.5c1-28,11-74,125-83c15-9,93-24,44,12c77,36,68,101,82,147c17,1,30,12,37,28c3,9-1,13-12,6
		c-8-5-20-11-25-9c-7,3-9,14-13,22c-3,6-10,10-12,0c-4-14,1-32,10-44c-27-53-68-83-127-88c-7-1-6,4-1,8s11,7,16,10c12,6,6,11-5,10
		c-22,0-44-3-65-20c-12,6-28,10-42,17c-15,8-29,14-37,12C1.8,216.5,18.8,199.5,35.8,190.5z M63.8,161.5c3,0,5,2,5,5s-2,5-5,5
		c-3,0-5-2-5-5S60.8,161.5,63.8,161.5z"/>
</g>
</svg>
