<svg enable-background="new 0 0 333 416.2" viewBox="0 0 333 416.2" xmlns="http://www.w3.org/2000/svg"><path clip-rule="evenodd" d="m73.3 333.6c-19.5-43.7-14.6-103.3 7.3-145.8-10.9-41.3-6.1-92.3 43.7-167.6 4.9-7.3 9.7-4.9 10.9 2.4 8.5 44.9 4.9 83.8-2.4 119 3.6-1.2 8.5-2.4 12.1-3.6 8.5-13.4 14.6-19.4 21.9-24.3-1.2 8.5-4.9 21.9-1.2 19.4 6.1-3.6 12.1-12.1 19.4-10.9-2.4 7.3-2.4 9.7-3.6 13.4 3.6 2.4 14.6 4.9 18.2 6.1-7.3-35.2-9.7-74.1-2.4-119 1.2-7.3 6.1-9.7 10.9-2.4 51 75.3 54.7 126.3 43.7 167.6 23.1 42.5 26.7 102 8.5 145.8-1.2 36.4-42.5 66.8-93.5 66.8-52.2-.1-93.5-30.5-93.5-66.9zm32.8 24.3c-1.2 0-2.4-2.4-1.2-4.9 1.2-1.2 3.6-2.4 6.1-1.2 18.2 12.1 36.4 17 55.9 17 18.2 0 36.4-6.1 55.9-17 1.2-1.2 3.6 0 4.9 1.2 1.2 2.4 0 4.9-1.2 6.1-20.7 10.9-40.1 17-59.5 17-20.8 1.2-40.3-4.8-60.9-18.2zm12.1-46.2c6.1 0 12.1 4.9 12.1 12.1 0 6.1-6.1 12.1-12.1 12.1-7.3 0-12.1-6.1-12.1-12.1 0-7.2 4.8-12.1 12.1-12.1zm96 0c7.3 0 13.4 4.9 13.4 12.1 0 6.1-6.1 12.1-13.4 12.1-6.1 0-12.1-6.1-12.1-12.1-.1-7.2 6-12.1 12.1-12.1zm-47.4-37.6c46.2 0 83.8 26.7 83.8 58.3 0 32.8-37.7 58.3-83.8 58.3s-83.8-25.5-83.8-58.3c0-31.6 37.6-58.3 83.8-58.3zm47.4-59.5c-6.1 0-10.9 4.9-10.9 10.9 0 7.3 4.9 12.1 10.9 12.1 7.3 0 12.1-4.9 12.1-12.1 0-6.1-4.8-10.9-12.1-10.9zm-2.4 4.8c-2.4 0-3.6 2.4-3.6 3.6 0 2.4 1.2 4.9 3.6 4.9 1.2 0 3.6-2.4 3.6-4.9 0-1.2-2.4-3.6-3.6-3.6zm2.4-12.1c-9.7 0-18.2 8.5-18.2 18.2 0 10.9 8.5 19.4 18.2 19.4 10.9 0 19.4-8.5 19.4-19.4 0-9.7-8.5-18.2-19.4-18.2zm27.9-34c-8.5-10.9-17-19.4-27.9-25.5-6.1-27.9-10.9-58.3-9.7-93.5 0-9.7 6.1-9.7 10.9-1.2 23.1 41.2 31.6 74 26.7 120.2zm-123.9 41.3c6.1 0 12.1 4.9 12.1 10.9 0 7.3-6.1 12.1-12.1 12.1-6.1 0-12.1-4.9-12.1-12.1 0-6.1 6-10.9 12.1-10.9zm3.7 4.8c1.2 0 3.6 2.4 3.6 3.6 0 2.4-2.4 4.9-3.6 4.9-2.4 0-3.6-2.4-3.6-4.9-.1-1.2 1.1-3.6 3.6-3.6zm-3.7-12.1c10.9 0 19.4 8.5 19.4 18.2 0 10.9-8.5 19.4-19.4 19.4s-19.4-8.5-19.4-19.4c0-9.7 8.5-18.2 19.4-18.2zm-27.9-34c8.5-10.9 17-19.4 27.9-25.5 6.1-27.9 10.9-58.3 9.7-93.5 0-9.7-4.9-9.7-9.7-1.2-23.1 41.2-32.8 74-27.9 120.2z" fill-rule="evenodd"/></svg>