<?xml version="1.0" encoding="utf-8"?>
<!-- Generator: Adobe Illustrator 23.0.6, SVG Export Plug-In . SVG Version: 6.00 Build 0)  -->
<svg version="1.1" id="Layer_1" xmlns="http://www.w3.org/2000/svg" xmlns:xlink="http://www.w3.org/1999/xlink" x="0px" y="0px"
	 viewBox="0 0 333 416.2" style="enable-background:new 0 0 333 416.2;" xml:space="preserve">
<style type="text/css">
	.st0{fill-rule:evenodd;clip-rule:evenodd;}
</style>
<g>
	<path class="st0" d="M73.6,331.8C54.1,288.1,59,228.5,80.9,186c-10.9-41.3-6.1-92.3,43.7-167.6c4.9-7.3,9.7-4.9,10.9,2.4
		c8.5,44.9,4.9,83.8-2.4,119c3.6-1.2,8.5-2.4,12.1-3.6c8.5-13.4,14.6-19.4,21.9-24.3c-1.2,8.5-4.9,21.9-1.2,19.4
		c6.1-3.6,12.1-12.1,19.4-10.9c-2.4,7.3-2.4,9.7-3.6,13.4c3.6,2.4,14.6,4.9,18.2,6.1c-7.3-35.2-9.7-74.1-2.4-119
		c1.2-7.3,6.1-9.7,10.9-2.4c51,75.3,54.7,126.3,43.7,167.6c23.1,42.5,26.7,102,8.5,145.8c-1.2,36.4-42.5,66.8-93.5,66.8
		C114.9,398.6,73.6,368.2,73.6,331.8z M106.4,356.1c-1.2,0-2.4-2.4-1.2-4.9c1.2-1.2,3.6-2.4,6.1-1.2c18.2,12.1,36.4,17,55.9,17
		c18.2,0,36.4-6.1,55.9-17c1.2-1.2,3.6,0,4.9,1.2c1.2,2.4,0,4.9-1.2,6.1c-20.7,10.9-40.1,17-59.5,17
		C146.5,375.5,127,369.5,106.4,356.1z M118.5,309.9c6.1,0,12.1,4.9,12.1,12.1c0,6.1-6.1,12.1-12.1,12.1c-7.3,0-12.1-6.1-12.1-12.1
		C106.4,314.8,111.2,309.9,118.5,309.9z M214.5,309.9c7.3,0,13.4,4.9,13.4,12.1c0,6.1-6.1,12.1-13.4,12.1c-6.1,0-12.1-6.1-12.1-12.1
		C202.3,314.8,208.4,309.9,214.5,309.9z M167.1,272.3c46.2,0,83.8,26.7,83.8,58.3c0,32.8-37.7,58.3-83.8,58.3s-83.8-25.5-83.8-58.3
		C83.3,299,120.9,272.3,167.1,272.3z M214.5,212.8c-6.1,0-10.9,4.9-10.9,10.9c0,7.3,4.9,12.1,10.9,12.1c7.3,0,12.1-4.9,12.1-12.1
		C226.6,217.6,221.8,212.8,214.5,212.8z M212.1,217.6c-2.4,0-3.6,2.4-3.6,3.6c0,2.4,1.2,4.9,3.6,4.9c1.2,0,3.6-2.4,3.6-4.9
		C215.7,220,213.3,217.6,212.1,217.6z M214.5,205.5c-9.7,0-18.2,8.5-18.2,18.2c0,10.9,8.5,19.4,18.2,19.4c10.9,0,19.4-8.5,19.4-19.4
		C233.9,214,225.4,205.5,214.5,205.5z M242.4,171.5c-8.5-10.9-17-19.4-27.9-25.5c-6.1-27.9-10.9-58.3-9.7-93.5
		c0-9.7,6.1-9.7,10.9-1.2C238.8,92.5,247.3,125.3,242.4,171.5z M118.5,212.8c6.1,0,12.1,4.9,12.1,10.9c0,7.3-6.1,12.1-12.1,12.1
		c-6.1,0-12.1-4.9-12.1-12.1C106.4,217.6,112.4,212.8,118.5,212.8z M122.2,217.6c1.2,0,3.6,2.4,3.6,3.6c0,2.4-2.4,4.9-3.6,4.9
		c-2.4,0-3.6-2.4-3.6-4.9C118.5,220,119.7,217.6,122.2,217.6z M118.5,205.5c10.9,0,19.4,8.5,19.4,18.2c0,10.9-8.5,19.4-19.4,19.4
		s-19.4-8.5-19.4-19.4C99.1,214,107.6,205.5,118.5,205.5z M90.6,171.5c8.5-10.9,17-19.4,27.9-25.5c6.1-27.9,10.9-58.3,9.7-93.5
		c0-9.7-4.9-9.7-9.7-1.2C95.4,92.5,85.7,125.3,90.6,171.5z"/>
</g>
</svg>
