<svg xmlns="http://www.w3.org/2000/svg" xmlns:xlink="http://www.w3.org/1999/xlink" xml:space="preserve" version="1.1" style="shape-rendering:geometricPrecision;text-rendering:geometricPrecision;image-rendering:optimizeQuality;" viewBox="0 0 333 416.25" x="0px" y="0px" fill-rule="evenodd" clip-rule="evenodd"><defs><style type="text/css">
   
    .fil0 {fill:black}
   
  </style></defs><g><path class="fil0" d="M90 270c-16,-36 -12,-85 6,-120 -9,-34 -5,-76 36,-138 4,-6 8,-4 9,2 7,37 4,69 -2,98 3,-1 7,-2 10,-3 7,-11 12,-16 18,-20 -1,7 -4,18 -1,16 5,-3 10,-10 16,-9 -2,6 -2,8 -3,11 3,2 12,4 15,5 -6,-29 -8,-61 -2,-98 1,-6 5,-8 9,-2 42,62 45,104 36,138 19,35 22,84 7,120 -1,30 -35,55 -77,55 -43,0 -77,-25 -77,-55zm27 20c-1,0 -2,-2 -1,-4 1,-1 3,-2 5,-1 15,10 30,14 46,14 15,0 30,-5 46,-14 1,-1 3,0 4,1 1,2 0,4 -1,5 -17,9 -33,14 -49,14 -17,1 -33,-4 -50,-15zm10 -38c5,0 10,4 10,10 0,5 -5,10 -10,10 -6,0 -10,-5 -10,-10 0,-6 4,-10 10,-10zm79 0c6,0 11,4 11,10 0,5 -5,10 -11,10 -5,0 -10,-5 -10,-10 0,-6 5,-10 10,-10zm-39 -31c38,0 69,22 69,48 0,27 -31,48 -69,48 -38,0 -69,-21 -69,-48 0,-26 31,-48 69,-48zm39 -49c-5,0 -9,4 -9,9 0,6 4,10 9,10 6,0 10,-4 10,-10 0,-5 -4,-9 -10,-9zm-2 4c-2,0 -3,2 -3,3 0,2 1,4 3,4 1,0 3,-2 3,-4 0,-1 -2,-3 -3,-3zm2 -10c-8,0 -15,7 -15,15 0,9 7,16 15,16 9,0 16,-7 16,-16 0,-8 -7,-15 -16,-15zm23 -28c-7,-9 -14,-16 -23,-21 -5,-23 -9,-48 -8,-77 0,-8 5,-8 9,-1 19,34 26,61 22,99zm-102 34c5,0 10,4 10,9 0,6 -5,10 -10,10 -5,0 -10,-4 -10,-10 0,-5 5,-9 10,-9zm3 4c1,0 3,2 3,3 0,2 -2,4 -3,4 -2,0 -3,-2 -3,-4 0,-1 1,-3 3,-3zm-3 -10c9,0 16,7 16,15 0,9 -7,16 -16,16 -9,0 -16,-7 -16,-16 0,-8 7,-15 16,-15zm-23 -28c7,-9 14,-16 23,-21 5,-23 9,-48 8,-77 0,-8 -4,-8 -8,-1 -19,34 -27,61 -23,99z"/></g><text x="0" y="348" fill="#000000" font-size="5px" font-weight="bold" font-family="'Helvetica Neue', Helvetica, Arial-Unicode, Arial, Sans-serif">Created by Rfourtytwo</text><text x="0" y="353" fill="#000000" font-size="5px" font-weight="bold" font-family="'Helvetica Neue', Helvetica, Arial-Unicode, Arial, Sans-serif">from the Noun Project</text></svg>