<svg enable-background="new 0 0 512 640" viewBox="0 0 512 640" xmlns="http://www.w3.org/2000/svg"><path d="m123.2 258.3c-3.6-9.4-7.2-18.8-10.8-28-12.8 2.1-60.4 12.5-69.3 50.6-.6 2.5-2.9 4.3-5.4 4.3-.4 0-.9 0-1.3-.1-3-.7-4.7-3.6-4.1-6.6 10.2-43.1 58.7-55.4 76.1-58.5-2.8-7.2-5.5-14.4-8.3-21.5-1.1-3-2.3-6-3.4-8.9-2.4-6.2-4.7-12.4-7.2-18.5-64.1 42.1-76.8 70.1-80.5 90-.3 1.5-.4 3.1-.6 4.7-2.1 57.2 7.3 69.9 15.6 73.2 1.7-20.9 13.1-33.5 34.3-37.5.4-.1.9-.1 1.2-.1 2.8.1 5.5.2 8.2.2 24.6 0 46.5-4.6 66.6-14.1-2.5-6.6-5.1-13.2-7.7-19.9-1.1-3.4-2.3-6.3-3.4-9.3z"/><path d="m497.4 478.7c0-.1 0-.2 0-.3-2.8-34.7-6.2-71.5-11.6-108.1-11.5-6.1-66.8-35.6-87.6-55-20.1-18.8-34.1-66.7-34.7-68.8-.9-3 .9-6 3.8-6.8 3-.9 6 .9 6.8 3.8.1.4 13.8 47 31.6 63.7 16.7 15.6 59.1 39.3 77.8 49.5-7-42.8-16.9-84.8-31.6-121.7-29.8-74.6-76.3-121-142-141.8-19.3-5.5-38.2-8.3-56.3-8.3-55.2 0-104.6 25.1-155.3 78.6 2.3 5.9 4.5 11.7 6.8 17.7 1.5 4.1 3.1 8.1 4.6 12.1 4 10.3 7.9 20.6 11.9 30.9.9 2.2 1.8 4.5 2.6 6.7 3.1 7.9 6.1 15.9 9.2 23.7 1.5 4.2 3.2 8.3 4.7 12.4 2.2 5.9 4.5 11.7 6.7 17.6 13.2 1.8 28 10.6 32 40.2 15.2 6.7 80.4 38.3 75.7 86.3-.2 2.9-2.6 5-5.5 5-.2 0-.3 0-.6 0-3-.3-5.3-3-5-6.1 3.8-39-52.2-67.3-67.9-74.5-25.1 39.6-24.6 129.3-20.5 173.8l25.2 33.7 19.3-77.1c.6-2.3 2.5-4 4.9-4.2 2.3-.2 4.5 1.1 5.5 3.3l38.9 87.4 17.2-43.1c.7-1.8 2.2-3 4-3.3s3.8.2 5 1.5l36.3 36.3 9.7-66.8c-.6-37.9-10.8-137.5-51.2-149.4-56.5-16.8-59.1-58.5-59.2-60.3-.1-3.1 2.2-5.6 5.3-5.7s5.6 2.2 5.7 5.2c.1 1.4 2.6 35.8 51.2 50.2 24.3 7.2 41.6 36.7 51.4 87.7 6.5 33.3 7.5 64.6 7.6 71.3l39.1 79.2 27.6-45.9c5.6-18.2-13.1-42.6-21-50.6-2.1-2.2-2.1-5.6.1-7.8s5.6-2.1 7.8.1c1.3 1.3 30.4 31.4 24.3 58.8l34.1 34.1 9.5-66.4c.3-2.2 1.9-4 4-4.5 2.1-.6 4.3.1 5.7 1.8l42.7 51.3zm-297.3-340.8c12.4-8.3 29-15.8 59.5-8.7 3 .7 4.9 3.6 4.1 6.6-.7 3-3.6 4.9-6.6 4.1-26.3-6.1-40-.2-50.9 7.2-1 .7-2 .9-3.1.9-1.8 0-3.5-.9-4.6-2.4-1.6-2.5-.8-6 1.6-7.7zm52.8 42.2c0 9.2-7.4 16.6-16.6 16.6s-16.6-7.4-16.6-16.6 7.4-16.6 16.6-16.6 16.6 7.5 16.6 16.6zm62.5 47.9c-18.3 6.1-35.6 8.4-50.9 8.4-44.3 0-73.8-19-75.4-20.1-2.5-1.7-3.2-5.1-1.5-7.6s5.1-3.2 7.6-1.5c.7.4 50.8 32.3 116.7 10.4 2.9-1 6.1.6 7 3.5 1 2.8-.7 5.9-3.5 6.9z"/><path d="m230.8 180.1c0 3.1 2.4 5.5 5.5 5.5s5.5-2.4 5.5-5.5-2.4-5.5-5.5-5.5-5.5 2.4-5.5 5.5z"/></svg>