<?xml version="1.0" encoding="utf-8"?>
<!-- Generator: Adobe Illustrator 23.0.6, SVG Export Plug-In . SVG Version: 6.00 Build 0)  -->
<svg version="1.1" id="Layer_1" xmlns="http://www.w3.org/2000/svg" xmlns:xlink="http://www.w3.org/1999/xlink" x="0px" y="0px"
	 viewBox="0 0 512 640" style="enable-background:new 0 0 512 640;" xml:space="preserve">
<g>
	<g>
		<path d="M123.2,258.3c-3.6-9.4-7.2-18.8-10.8-28c-12.8,2.1-60.4,12.5-69.3,50.6c-0.6,2.5-2.9,4.3-5.4,4.3c-0.4,0-0.9,0-1.3-0.1
			c-3-0.7-4.7-3.6-4.1-6.6c10.2-43.1,58.7-55.4,76.1-58.5c-2.8-7.2-5.5-14.4-8.3-21.5c-1.1-3-2.3-6-3.4-8.9
			c-2.4-6.2-4.7-12.4-7.2-18.5c-64.1,42.1-76.8,70.1-80.5,90c-0.3,1.5-0.4,3.1-0.6,4.7C6.3,323,15.7,335.7,24,339
			c1.7-20.9,13.1-33.5,34.3-37.5c0.4-0.1,0.9-0.1,1.2-0.1c2.8,0.1,5.5,0.2,8.2,0.2c24.6,0,46.5-4.6,66.6-14.1
			c-2.5-6.6-5.1-13.2-7.7-19.9C125.5,264.2,124.3,261.3,123.2,258.3z"/>
		<path d="M497.4,478.7c0-0.1,0-0.2,0-0.3c-2.8-34.7-6.2-71.5-11.6-108.1c-11.5-6.1-66.8-35.6-87.6-55
			c-20.1-18.8-34.1-66.7-34.7-68.8c-0.9-3,0.9-6,3.8-6.8c3-0.9,6,0.9,6.8,3.8c0.1,0.4,13.8,47,31.6,63.7
			c16.7,15.6,59.1,39.3,77.8,49.5c-7-42.8-16.9-84.8-31.6-121.7c-29.8-74.6-76.3-121-142-141.8c-19.3-5.5-38.2-8.3-56.3-8.3
			c-55.2,0-104.6,25.1-155.3,78.6c2.3,5.9,4.5,11.7,6.8,17.7c1.5,4.1,3.1,8.1,4.6,12.1c4,10.3,7.9,20.6,11.9,30.9
			c0.9,2.2,1.8,4.5,2.6,6.7c3.1,7.9,6.1,15.9,9.2,23.7c1.5,4.2,3.2,8.3,4.7,12.4c2.2,5.9,4.5,11.7,6.7,17.6
			c13.2,1.8,28,10.6,32,40.2c15.2,6.7,80.4,38.3,75.7,86.3c-0.2,2.9-2.6,5-5.5,5c-0.2,0-0.3,0-0.6,0c-3-0.3-5.3-3-5-6.1
			c3.8-39-52.2-67.3-67.9-74.5c-25.1,39.6-24.6,129.3-20.5,173.8l25.2,33.7l19.3-77.1c0.6-2.3,2.5-4,4.9-4.2
			c2.3-0.2,4.5,1.1,5.5,3.3l38.9,87.4l17.2-43.1c0.7-1.8,2.2-3,4-3.3c1.8-0.3,3.8,0.2,5,1.5l36.3,36.3L319,477
			c-0.6-37.9-10.8-137.5-51.2-149.4c-56.5-16.8-59.1-58.5-59.2-60.3c-0.1-3.1,2.2-5.6,5.3-5.7c3.1-0.1,5.6,2.2,5.7,5.2
			c0.1,1.4,2.6,35.8,51.2,50.2c24.3,7.2,41.6,36.7,51.4,87.7c6.5,33.3,7.5,64.6,7.6,71.3l39.1,79.2l27.6-45.9
			c5.6-18.2-13.1-42.6-21-50.6c-2.1-2.2-2.1-5.6,0.1-7.8c2.2-2.2,5.6-2.1,7.8,0.1c1.3,1.3,30.4,31.4,24.3,58.8l34.1,34.1l9.5-66.4
			c0.3-2.2,1.9-4,4-4.5c2.1-0.6,4.3,0.1,5.7,1.8l42.7,51.3L497.4,478.7z M200.1,137.9c12.4-8.3,29-15.8,59.5-8.7
			c3,0.7,4.9,3.6,4.1,6.6c-0.7,3-3.6,4.9-6.6,4.1c-26.3-6.1-40-0.2-50.9,7.2c-1,0.7-2,0.9-3.1,0.9c-1.8,0-3.5-0.9-4.6-2.4
			C196.9,143.1,197.7,139.6,200.1,137.9z M252.9,180.1c0,9.2-7.4,16.6-16.6,16.6s-16.6-7.4-16.6-16.6s7.4-16.6,16.6-16.6
			S252.9,171,252.9,180.1z M315.4,228c-18.3,6.1-35.6,8.4-50.9,8.4c-44.3,0-73.8-19-75.4-20.1c-2.5-1.7-3.2-5.1-1.5-7.6
			c1.7-2.5,5.1-3.2,7.6-1.5c0.7,0.4,50.8,32.3,116.7,10.4c2.9-1,6.1,0.6,7,3.5C319.9,223.9,318.2,227,315.4,228z"/>
		<path d="M230.8,180.1c0,3.1,2.4,5.5,5.5,5.5c3.1,0,5.5-2.4,5.5-5.5s-2.4-5.5-5.5-5.5C233.2,174.6,230.8,177,230.8,180.1z"/>
	</g>
</g>
</svg>
