<svg enable-background="new 0 0 333 416.2" viewBox="0 0 333 416.2" xmlns="http://www.w3.org/2000/svg"><path clip-rule="evenodd" d="m67.6 252.3c-31.8-11.3-63.6-54.3-63.6-88.2 0-36.9 26.7-67.7 58.4-67.7 15.4 0 27.7 5.1 36.9 14.4-22.6 21.5-33.8 54.3-32.8 89.2-12.3 20.5-9.2 39 1.1 52.3zm49.2-53.3c3.1 0 5.1 2.1 5.1 5.1s-2.1 6.2-5.1 6.2c-3.1 0-5.1-3.1-5.1-6.2s2-5.1 5.1-5.1zm99.4 0c-3.1 0-5.1 2.1-5.1 5.1s2.1 6.2 5.1 6.2c3.1 0 6.2-3.1 6.2-6.2s-3.1-5.1-6.2-5.1zm-49.2-105.6c-68.7 0-95.3 58.4-92.3 108.7-16.4 26.7-8.2 53.3 30.8 66.6-3.1 9.2-18.5 16.4-15.4 24.6 1 4.1 4.1 6.2 7.2 6.2 15.4 3.1 36.9-9.2 42-24.6 2.1-10.3-3.1-25.6-4.1-39 0-39 62.5-39 62.5 0-1 13.3-5.1 28.7-3.1 39 5.1 15.4 25.6 27.7 41 24.6 3.1 0 7.2-2.1 8.2-6.2 2.1-8.2-13.3-15.4-16.4-24.6 39-13.3 48.2-40 31.8-66.6 2.1-50.3-24.5-108.7-92.2-108.7zm-44.1 161c6.2 0 11.3 5.1 11.3 11.3 1 17.4-23.6 29.7-35.9 27.7-11.3-2.1 14.4-11.3 14.4-27.7 0-6.2 5.1-11.3 10.2-11.3zm87.2 0c-6.2 0-11.3 5.1-11.3 11.3-1 17.4 24.6 29.7 35.9 27.7 11.3-2.1-14.4-11.3-13.3-27.7 0-6.2-5.2-11.3-11.3-11.3zm-95.4-60.5c7.2 0 12.3 5.1 12.3 11.3 0 7.2-5.1 12.3-12.3 12.3s-12.3-5.1-12.3-12.3c0-6.2 5.1-11.3 12.3-11.3zm104.6 0c-7.2 0-13.3 5.1-13.3 11.3 0 7.2 6.2 12.3 13.3 12.3 6.2 0 12.3-5.1 12.3-12.3 0-6.2-6.1-11.3-12.3-11.3zm-35.9 122c0-5.1-2.1-6.2-5.1-9.2 8.2-22.6 13.3-61.5 13.3-70.7 0-30.8-50.2-30.8-50.2 0 0 9.2 6.2 48.2 14.4 70.7-4.1 3.1-6.2 4.1-6.2 9.2 0 9.2 33.8 9.2 33.8 0zm2.1-67.7c-11.3-8.2-26.7-8.2-36.9 0 9.2-19.5 26.6-19.5 36.9 0zm-3.1 21.5c-10.3-8.2-21.5-8.2-31.8 0 9.2-18.4 22.6-18.4 31.8 0zm-4.1 19.5c-8.2-6.2-14.4-6.2-23.6 0 8.2-15.4 16.4-15.4 23.6 0zm-5.1 24.6c0 3.1-12.3 3.1-12.3 0 0-3 12.3-3 12.3 0zm92.2-61.5c31.8-11.3 63.6-54.3 63.6-88.2 0-36.9-25.6-67.7-58.4-67.7-14.4 0-26.7 5.1-36.9 14.4 22.6 21.5 34.9 54.3 32.8 89.2 12.3 20.5 10.2 39-1.1 52.3z" fill-rule="evenodd"/></svg>