<?xml version="1.0" encoding="utf-8"?>
<!-- Generator: Adobe Illustrator 23.0.6, SVG Export Plug-In . SVG Version: 6.00 Build 0)  -->
<svg version="1.1" id="Layer_1" xmlns="http://www.w3.org/2000/svg" xmlns:xlink="http://www.w3.org/1999/xlink" x="0px" y="0px"
	 viewBox="0 0 100 125" style="enable-background:new 0 0 100 125;" xml:space="preserve">
<style type="text/css">
	.st0{fill-rule:evenodd;clip-rule:evenodd;}
</style>
<g>
	<path class="st0" d="M50.1,18.2c24.7,0,52.2,32.1,45.2,56.6c-5.2,18.3-23.4,28.1-45.2,28.1c-22.5,0-41.4-10.6-45.8-30.2
		C-1.1,48.2,25.5,18.2,50.1,18.2z M78.7,65.6c4.1,0,4.1,7.6,0,7.6S74.7,65.6,78.7,65.6z M21.2,65.6c4.1,0,4.1,7.6,0,7.6
		S17.2,65.6,21.2,65.6z M36,77.5c9.1,3.2,18.3,3.3,27.3,0c1-0.3,1.7,1.4,0.7,1.8c-9.5,3.5-18.9,3.4-28.5,0
		C34.2,78.9,34.8,77.1,36,77.5L36,77.5z M50,66.3c9.2,0,16.8,4.6,16.8,10.4c0,5.7-7.6,10.4-16.8,10.4s-16.8-4.6-16.8-10.4
		C33.2,71,40.7,66.3,50,66.3z M50.1,98.9c17.4,0,36.2-7,41.3-25.1c2.5-8.8-0.2-18.9-5.7-27.8c-6.2-3.7-12.1-0.6-14.1,4.1
		c-3,7.2-5.7,12.7-9.1,16.6c14.1,7.8,6,23.3-12.4,23.3S23.6,74.5,37.6,66.7c-3.5-3.8-6.2-9.4-9.2-16.6c-2-4.8-8.2-8-14.7-3.7
		c-4.8,8-7.2,17.1-5.4,25.5C12.7,91.3,31.9,98.9,50.1,98.9L50.1,98.9z"/>
</g>
</svg>
