<svg enable-background="new 0 0 100 100" viewBox="0 0 100 100" xmlns="http://www.w3.org/2000/svg"><path clip-rule="evenodd" d="m50.1 6.5c25.4 0 53.6 33 46.4 58.1-5.3 18.8-24 28.9-46.4 28.9-23.1 0-42.5-10.9-47.1-31-5.5-25.2 21.8-56 47.1-56zm29.4 48.7c4.2 0 4.2 7.8 0 7.8s-4.1-7.8 0-7.8zm-59.1 0c4.2 0 4.2 7.8 0 7.8s-4.1-7.8 0-7.8zm15.2 12.2c9.3 3.3 18.8 3.4 28 0 1-.3 1.7 1.4.7 1.8-9.8 3.6-19.4 3.5-29.3 0-1.2-.3-.6-2.2.6-1.8zm14.4-11.5c9.5 0 17.3 4.7 17.3 10.7 0 5.9-7.8 10.7-17.3 10.7s-17.3-4.7-17.3-10.7c0-5.9 7.7-10.7 17.3-10.7zm.1 33.5c17.9 0 37.2-7.2 42.4-25.8 2.6-9-.2-19.4-5.9-28.6-6.4-3.8-12.4-.6-14.5 4.2-3.1 7.4-5.9 13-9.3 17.1 14.5 8 6.2 23.9-12.7 23.9s-27.2-15.9-12.8-23.9c-3.6-3.9-6.4-9.7-9.5-17.1-2.1-4.9-8.4-8.2-15.1-3.8-4.9 8.3-7.4 17.6-5.5 26.3 4.5 19.9 24.2 27.7 42.9 27.7z" fill-rule="evenodd"/></svg>