<svg xmlns="http://www.w3.org/2000/svg" xmlns:xlink="http://www.w3.org/1999/xlink" xml:space="preserve" style="shape-rendering:geometricPrecision;text-rendering:geometricPrecision;image-rendering:optimizeQuality;" viewBox="0 0 100 125" x="0px" y="0px" fill-rule="evenodd" clip-rule="evenodd"><defs><style type="text/css">
   
    .fil0 {fill:black}
   
  </style></defs><g><path class="fil0" d="M50.0732 12.4206c21.8541,0 46.263,28.5298 40.0952,50.2339 -4.59452,16.1682 -20.8076,24.9238 -40.0952,24.9238 -20.0033,0 -36.6971,-9.41582 -40.5582,-26.751 -4.85083,-21.7821 18.7442,-48.4067 40.5582,-48.4067zm25.4152 41.9637c3.63664,0 3.63664,6.67328 0,6.67328 -3.63546,0 -3.63428,-6.67328 0,-6.67328zm-50.9614 0c3.63546,0 3.63546,6.67328 0,6.67328 -3.63546,0 -3.63546,-6.67328 0,-6.67328zm13.0241 10.6135c8.12014,2.79687 16.1871,2.94215 24.1632,-0.00708667 0.891739,-0.32953 1.513,1.24371 0.598824,1.58269 -8.35282,3.09687 -16.8025,2.95632 -25.3053,0.0271656 -1.05237,-0.362601 -0.471264,-1.95238 0.543311,-1.60277zm12.4572 -9.87764c8.23353,0 14.9104,4.12917 14.9104,9.22094 0,5.09177 -6.67682,9.22094 -14.9104,9.22094 -8.23353,0 -14.9115,-4.12917 -14.9115,-9.22094 0,-5.09177 6.67801,-9.22094 14.9115,-9.22094zm0.0649611 28.8487c15.3556,0 32.0589,-6.24218 36.6227,-22.3006 2.22521,-7.82959 -0.155907,-16.7907 -5.06697,-24.6876 -5.5465,-3.339 -10.7328,-0.497248 -12.4749,3.62601 -2.71183,6.41698 -5.10949,11.3115 -8.17565,14.7379 12.482,6.87171 5.31973,20.6234 -10.9702,20.6234 -16.284,0 -23.4498,-13.7422 -10.982,-20.6175 -3.06853,-3.4264 -5.46737,-8.32329 -8.1792,-14.7438 -1.79883,-4.25555 -7.26384,-7.14573 -13.0088,-3.28585 -4.32641,7.22014 -6.44651,15.3273 -4.80004,22.721 3.81381,17.1238 20.9931,23.927 37.0349,23.927z"/></g><text x="0" y="115" fill="#000000" font-size="5px" font-weight="bold" font-family="'Helvetica Neue', Helvetica, Arial-Unicode, Arial, Sans-serif">Created by Rfourtytwo</text><text x="0" y="120" fill="#000000" font-size="5px" font-weight="bold" font-family="'Helvetica Neue', Helvetica, Arial-Unicode, Arial, Sans-serif">from the Noun Project</text></svg>