<?xml version="1.0" encoding="utf-8"?>
<!-- Generator: Adobe Illustrator 23.0.6, SVG Export Plug-In . SVG Version: 6.00 Build 0)  -->
<svg version="1.1" id="Layer_1" xmlns="http://www.w3.org/2000/svg" xmlns:xlink="http://www.w3.org/1999/xlink" x="0px" y="0px"
	 viewBox="0 0 333 416.2" style="enable-background:new 0 0 333 416.2;" xml:space="preserve">
<style type="text/css">
	.st0{fill-rule:evenodd;clip-rule:evenodd;}
</style>
<g>
	<path class="st0" d="M203.7,192c0-53.8,2.6-117.9,20.5-165.3c14.1-38.4,37.2-17.9,50,3.8c48.7,76.9,19.2,141-15.4,202.5
		c17.9,24.3,30.8,62.8,43.6,121.7c-47.4,1.3-50,56.4-135.8,56.4c-87.1,0-88.4-55.1-135.8-56.4c11.5-59,25.6-97.4,42.3-121.7
		C38.3,171.5,8.9,107.4,57.6,30.5c14.1-21.8,35.9-42.3,50-3.8c17.9,47.4,20.5,111.5,21.8,165.3C157.5,181.7,174.2,181.7,203.7,192z
		 M176.8,379.1c11.5,0,11.5-10.3,0-10.3h-5.1v-23.1c10.3,0,21.8-7.7,28.2-12.8c6.4-3.8,2.6-10.3-2.6-7.7c-16.7,5.1-44.9,5.1-61.5,0
		c-6.4-2.6-10.3,3.8-3.8,7.7c7.7,3.8,19.2,12.8,28.2,12.8v23.1H155c-11.5,0-11.5,10.3,0,10.3H176.8z M115.2,272.7
		c-3.8,0-6.4,2.6-6.4,6.4c0,2.6,2.6,6.4,6.4,6.4c2.6,0,5.1-3.8,5.1-6.4C120.4,275.3,117.8,272.7,115.2,272.7z M108.8,266.3
		c-11.5,0-19.2,9-19.2,19.2c0,11.5,7.7,19.2,19.2,19.2c10.3,0,19.2-7.7,19.2-19.2C128.1,275.3,119.1,266.3,108.8,266.3z M78.1,42
		c0,0,17.9,44.9,6.4,83.3c-11.5,37.2-5.1,76.9-1.3,87.1c3.8,9-33.3-56.4-32-91C51.2,88.1,60.1,61.2,78.1,42z M230.6,272.7
		c2.6,0,5.1,2.6,5.1,6.4c0,2.6-2.6,6.4-5.1,6.4c-3.8,0-6.4-3.8-6.4-6.4C224.2,275.3,226.7,272.7,230.6,272.7z M222.9,266.3
		c10.3,0,19.2,9,19.2,19.2c0,11.5-9,19.2-19.2,19.2s-19.2-7.7-19.2-19.2C203.7,275.3,212.6,266.3,222.9,266.3z M253.6,42
		c0,0-17.9,44.9-6.4,83.3c11.5,37.2,6.4,76.9,1.3,87.1c-2.6,9,33.3-56.4,33.3-91C280.6,88.1,271.6,61.2,253.6,42z"/>
</g>
</svg>
