<svg enable-background="new 0 0 333 416.2" viewBox="0 0 333 416.2" xmlns="http://www.w3.org/2000/svg"><path clip-rule="evenodd" d="m203.7 192c0-53.8 2.6-117.9 20.5-165.3 14.1-38.4 37.2-17.9 50 3.8 48.7 76.9 19.2 141-15.4 202.5 17.9 24.3 30.8 62.8 43.6 121.7-47.4 1.3-50 56.4-135.8 56.4-87.1 0-88.4-55.1-135.8-56.4 11.5-59 25.6-97.4 42.3-121.7-34.8-61.5-64.2-125.6-15.5-202.5 14.1-21.8 35.9-42.3 50-3.8 17.9 47.4 20.5 111.5 21.8 165.3 28.1-10.3 44.8-10.3 74.3 0zm-26.9 187.1c11.5 0 11.5-10.3 0-10.3h-5.1v-23.1c10.3 0 21.8-7.7 28.2-12.8 6.4-3.8 2.6-10.3-2.6-7.7-16.7 5.1-44.9 5.1-61.5 0-6.4-2.6-10.3 3.8-3.8 7.7 7.7 3.8 19.2 12.8 28.2 12.8v23.1h-5.2c-11.5 0-11.5 10.3 0 10.3zm-61.6-106.4c-3.8 0-6.4 2.6-6.4 6.4 0 2.6 2.6 6.4 6.4 6.4 2.6 0 5.1-3.8 5.1-6.4.1-3.8-2.5-6.4-5.1-6.4zm-6.4-6.4c-11.5 0-19.2 9-19.2 19.2 0 11.5 7.7 19.2 19.2 19.2 10.3 0 19.2-7.7 19.2-19.2.1-10.2-8.9-19.2-19.2-19.2zm-30.7-224.3s17.9 44.9 6.4 83.3c-11.5 37.2-5.1 76.9-1.3 87.1 3.8 9-33.3-56.4-32-91 0-33.3 8.9-60.2 26.9-79.4zm152.5 230.7c2.6 0 5.1 2.6 5.1 6.4 0 2.6-2.6 6.4-5.1 6.4-3.8 0-6.4-3.8-6.4-6.4 0-3.8 2.5-6.4 6.4-6.4zm-7.7-6.4c10.3 0 19.2 9 19.2 19.2 0 11.5-9 19.2-19.2 19.2s-19.2-7.7-19.2-19.2c0-10.2 8.9-19.2 19.2-19.2zm30.7-224.3s-17.9 44.9-6.4 83.3c11.5 37.2 6.4 76.9 1.3 87.1-2.6 9 33.3-56.4 33.3-91-1.2-33.3-10.2-60.2-28.2-79.4z" fill-rule="evenodd"/></svg>