<svg xmlns="http://www.w3.org/2000/svg" xmlns:xlink="http://www.w3.org/1999/xlink" version="1.1" x="0px" y="0px" viewBox="0 0 55 68.75" style="enable-background:new 0 0 55 55;" xml:space="preserve"><style type="text/css">
	.st0{fill:none;stroke:#000000;stroke-width:2;stroke-linecap:round;stroke-linejoin:round;stroke-miterlimit:10;}
</style><g><g><path d="M47.9717102,25.6674805c-3.5777588-3.4815674-7.135376-3.3498535-9.5427856-2.5872803    c0.3065186,0.678833,0.5393677,1.4021606,0.6765747,2.164917l1.34729,7.4815674    c0.2181396,0.0200806,0.4329834,0.0335693,0.6409912,0.0335693c2.2119141,0,3.8574219-1.0756836,5.1035156-1.890625    c0.4169922-0.2729492,0.8115234-0.5307617,1.1689453-0.7143555c0.78125-0.4018555,1.3056641-1.1381836,1.4375-2.0205078    C48.9394836,27.2280273,48.6279602,26.3056641,47.9717102,25.6674805z"/></g><g><path d="M15.8779612,25.2446289c0.1377554-0.7647705,0.3715811-1.4900513,0.6797476-2.1704102    c-2.4067373-0.7592773-5.9572744-0.8837891-9.5303335,2.5932617c-0.65625,0.6386719-0.9667969,1.5610352-0.8310547,2.4677734    c0.1318359,0.8823242,0.65625,1.6186523,1.4375,2.0200195c0.3642578,0.1870117,0.765625,0.4536133,1.1914063,0.7358398    c1.2314453,0.8183594,2.8564453,1.8984375,5.0566406,1.8984375c0.2088013,0,0.4246826-0.0137939,0.6439209-0.0344238    L15.8779612,25.2446289z"/></g><g><path d="M37.1371155,25.598999c-0.3901367-2.168335-1.7236938-3.9562378-3.5222168-4.9661865    c3.7427368-1.776062,6.5134888-5.0955801,7.6134033-9.0578604c0.0096436-0.0217896,0.0123901-0.0457764,0.0205078-0.0682983    c0.3270874-1.2017822,0.5070801-2.4588623,0.5070801-3.7512817c0-1.1723633-0.1367188-2.5361328-0.3476563-3.4746094    c-0.1210938-0.5395508-0.6572266-0.8745117-1.1953125-0.7558594c-0.5390625,0.1210938-0.8769531,0.65625-0.7558594,1.1953125    c0.1787109,0.7939453,0.2988281,2.0136719,0.2988281,3.0351563c0,0.7966309-0.0846558,1.5761719-0.2316284,2.3359375    c-2.1621704-0.3779907-3.81427-2.2575684-3.81427-4.5258789c0-0.5522461-0.4472656-1-1-1s-1,0.4477539-1,1    c0,3.1844482,2.2653809,5.8494263,5.2689819,6.4694824c-0.6859131,1.8427124-1.800415,3.4887085-3.244873,4.8011465    c-2.3942261-0.1618042-4.2985229-2.1406851-4.2985229-4.5748281c0-0.5522461-0.4472656-1-1-1s-1,0.4477539-1,1    c0,2.7774658,1.7254028,5.1553946,4.1587524,6.1304922c-0.93396,0.5353394-1.9463501,0.9588623-3.0278931,1.2376709    c-0.088501,0.0228271-0.1607666,0.0714722-0.2365112,0.1147461c-0.0378418-0.0006104-0.0748901-0.005127-0.112854-0.005127    h-5.4399414c-0.0402222,0-0.0794067,0.0046997-0.1194458,0.0053711c-0.0760498-0.0436401-0.1488037-0.0924683-0.2377319-0.1154785    c-1.0806274-0.2788696-2.0922852-0.7022705-3.0255737-1.2373657c2.4331055-0.9750977,4.1583862-3.3530264,4.1583862-6.1303091    c0-0.5522461-0.4472656-1-1-1s-1,0.4477539-1,1c0,2.4338989-1.9038696,4.4125967-4.2978516,4.5747671    c-1.4432373-1.3113394-2.557251-2.9556265-3.2434082-4.7962637c3.0455933-0.6099854,5.3459473-3.2806396,5.3459473-6.4743042    c0-0.5522461-0.4472656-1-1-1s-1,0.4477539-1,1c0,2.2770996-1.6882324,4.1607056-3.8926992,4.5284424    c-0.1473389-0.7605591-0.2322998-1.5409546-0.2322998-2.338501c0-1.1494141,0.1591797-1.9360352,0.453125-2.9853516    c0.1494141-0.5317383-0.1611328-1.0834961-0.6933594-1.2324219c-0.5253906-0.1459961-1.0830078,0.1611328-1.2324219,0.6933594    c-0.3339844,1.1923828-0.5273438,2.1508789-0.5273438,3.5244141c0,5.5856934,3.2431021,10.5526724,8.1402578,12.8770132    c-1.8015137,1.0098877-3.135376,2.7979736-3.5256348,4.9666138l-3.2899771,18.2699585    c-0.3400269,1.9100342,0.1699829,3.8600464,1.4099731,5.3400269c1.2200308,1.460022,2.9900503,2.289978,4.8700552,2.289978    h13.3099976c1.8800049,0,3.6499634-0.8299561,4.8699951-2.2799683c1.2399902-1.4899902,1.75-3.4400024,1.4099731-5.3500366    L37.1371155,25.598999z M19.8670959,32.7789917c0-1.789978,1.4400024-3.25,3.210022-3.25    c1.7600098,0,3.2099609,1.460022,3.2099609,3.25s-1.4499512,3.25-3.2099609,3.25    C21.3070984,36.0289917,19.8670959,34.5689697,19.8670959,32.7789917z M27.4971008,46.8590088    c-2.6599731,0-4.7399902-1.4100342-4.7399902-3.2000122c0-1.7900391,2.0800171-3.2000122,4.7399902-3.2000122    c2.6500244,0,4.7299805,1.4099731,4.7299805,3.2000122C32.2270813,45.4489746,30.1471252,46.8590088,27.4971008,46.8590088z     M31.9170837,36.0289917c-1.7699585,0-3.2099609-1.460022-3.2099609-3.25s1.4400024-3.25,3.2099609-3.25    c1.7700195,0,3.210022,1.460022,3.210022,3.25S33.6871033,36.0289917,31.9170837,36.0289917z"/></g></g><text x="0" y="70" fill="#000000" font-size="5px" font-weight="bold" font-family="'Helvetica Neue', Helvetica, Arial-Unicode, Arial, Sans-serif">Created by Graphic Tigers</text><text x="0" y="75" fill="#000000" font-size="5px" font-weight="bold" font-family="'Helvetica Neue', Helvetica, Arial-Unicode, Arial, Sans-serif">from the Noun Project</text></svg>