<svg enable-background="new 0 0 333 416.2" viewBox="0 0 333 416.2" xmlns="http://www.w3.org/2000/svg"><path clip-rule="evenodd" d="m38.8 149.6c-11.3 6.2-20.5 2.1-25.7-2.1-12.3-7.2-13.3 26.7 4.1 34.9 28.7 13.3 30.8-8.2 49.3 27.7 19.5 35.9 74.9 91.3 139.6 91.3 32.8 1 65.7-10.3 89.3-28.7-6.2-3.1-11.3-6.2-13.3-14.4 8.2 3.1 19.5 7.2 27.7 0 14.4-17.4 21.6-40 18.5-65.7-8.3-65.6-72.9-100.5-130.4-73.8s-95.4 88.2-107.7 68.7c-13.3-19.5 0-16.4 4.1-44.1 4.1-21.6-18.5-30.8-19.5-20.5 0 9.2-10.3 14.4-19.5 16.4 3 14.4-2.1 23.6-16.5 10.3zm256.6 79c3.1 0 6.2 3.1 6.2 6.2s-3.1 5.1-6.2 5.1-5.1-2.1-5.1-5.1c0-3.1 2-6.2 5.1-6.2z" fill-rule="evenodd"/></svg>