<?xml version="1.0" encoding="utf-8"?>
<!-- Generator: Adobe Illustrator 23.0.6, SVG Export Plug-In . SVG Version: 6.00 Build 0)  -->
<svg version="1.1" id="Layer_1" xmlns="http://www.w3.org/2000/svg" xmlns:xlink="http://www.w3.org/1999/xlink" x="0px" y="0px"
	 viewBox="0 0 333 416.2" style="enable-background:new 0 0 333 416.2;" xml:space="preserve">
<style type="text/css">
	.st0{fill-rule:evenodd;clip-rule:evenodd;}
</style>
<g>
	<path class="st0" d="M38.8,149.6c-11.3,6.2-20.5,2.1-25.7-2.1c-12.3-7.2-13.3,26.7,4.1,34.9c28.7,13.3,30.8-8.2,49.3,27.7
		c19.5,35.9,74.9,91.3,139.6,91.3c32.8,1,65.7-10.3,89.3-28.7c-6.2-3.1-11.3-6.2-13.3-14.4c8.2,3.1,19.5,7.2,27.7,0
		c14.4-17.4,21.6-40,18.5-65.7C320,127,255.4,92.1,197.9,118.8S102.5,207,90.2,187.5c-13.3-19.5,0-16.4,4.1-44.1
		c4.1-21.6-18.5-30.8-19.5-20.5c0,9.2-10.3,14.4-19.5,16.4C58.3,153.7,53.2,162.9,38.8,149.6z M295.4,228.6c3.1,0,6.2,3.1,6.2,6.2
		c0,3.1-3.1,5.1-6.2,5.1c-3.1,0-5.1-2.1-5.1-5.1C290.3,231.7,292.3,228.6,295.4,228.6z"/>
</g>
</svg>
